<svg width="140" height="49" viewBox="0 0 140 49" fill="none" xmlns="http://www.w3.org/2000/svg">
<path d="M91.8904 14.1162V34.6811C91.8904 34.6811 92.528 43.9844 101.604 45.8608C101.604 45.8608 119.44 46.8005 126.127 45.8608C132.816 44.9211 135.443 38.7443 135.443 38.7443C135.443 38.7443 136.557 35.6179 136.557 34.9124V13.6478C136.557 13.6478 134.805 3.40489 125.489 2.77843C116.173 2.15197 103.092 2.77843 103.092 2.77843C103.092 2.77843 93.2477 3.60981 91.8904 14.1162Z" stroke="#FFF8F1" stroke-width="5" stroke-miterlimit="10"/>
<path d="M114.224 34.9879C119.337 34.9879 123.482 30.9918 123.482 26.0623C123.482 21.1328 119.337 17.1367 114.224 17.1367C109.111 17.1367 104.966 21.1328 104.966 26.0623C104.966 30.9918 109.111 34.9879 114.224 34.9879Z" stroke="#FFF8F1" stroke-width="5" stroke-miterlimit="10"/>
<path d="M126.943 13.6041C127.746 13.6041 128.397 12.9763 128.397 12.2019C128.397 11.4275 127.746 10.7997 126.943 10.7997C126.139 10.7997 125.488 11.4275 125.488 12.2019C125.488 12.9763 126.139 13.6041 126.943 13.6041Z" fill="#FFF8F1" stroke="#FFF8F1" stroke-width="5" stroke-miterlimit="10"/>
<path d="M2.5 14.175V34.844C2.5 34.844 3.11944 44.1943 11.9362 46.0802C11.9362 46.0802 29.2629 47.0247 35.7582 46.0802C42.2564 45.1358 44.8079 38.9277 44.8079 38.9277C44.8079 38.9277 45.8905 35.7855 45.8905 35.0764V13.7042C45.8905 13.7042 44.1885 3.40947 35.1387 2.77984C26.089 2.1502 13.3815 2.77984 13.3815 2.77984C13.3815 2.77984 3.81853 3.61542 2.5 14.175Z" stroke="#FCFAF0" stroke-width="5" stroke-miterlimit="10"/>
<path d="M25.9292 10.4669C26.8558 9.97308 28.2777 9.61244 30.4585 9.79797V10.0538C29.8417 10.0875 29.1645 10.1893 28.4849 10.4132C27.0654 10.8809 25.6377 11.8924 24.8608 13.7452C24.131 15.4863 24.1144 17.6482 24.6909 20.2013L25.1411 22.1954L27.1851 22.1495L30.1177 22.0841L29.9819 23.1632L27.0649 23.0909L24.5024 23.0275V42.9562H23.1548V23.3497H18.105V22.1505H23.6245L23.1196 19.2306L23.1177 19.2189C23.1153 19.2036 23.1107 19.1752 23.105 19.1349C23.0936 19.0537 23.0765 18.9241 23.0591 18.755C23.024 18.4156 22.9873 17.9227 22.9829 17.337C22.974 16.1374 23.1041 14.6817 23.5737 13.3761C24.032 12.1024 24.7656 11.0872 25.9292 10.4669Z" fill="#FFF8F1" stroke="#FCFAF0" stroke-width="5"/>
</svg>
