<?xml version="1.0" encoding="UTF-8"?>
<svg xmlns="http://www.w3.org/2000/svg" xmlns:xlink="http://www.w3.org/1999/xlink" version="1.1" viewBox="0 0 1512 982">
  <!-- Generator: Adobe Illustrator 30.0.0, SVG Export Plug-In . SVG Version: 2.1.1 Build 123)  -->
  <defs>
    <style>
      .st0, .st1 {
        stroke-width: .5px;
      }

      .st0, .st1, .st2, .st3, .st4 {
        stroke-miterlimit: 10;
      }

      .st0, .st1, .st3, .st4 {
        stroke: #001a18;
      }

      .st0, .st3 {
        fill: #fcfaf0;
      }

      .st1, .st4 {
        fill: #001a18;
      }

      .st2 {
        stroke: #000;
        stroke-width: 1.5px;
      }

      .st5 {
        opacity: .2;
      }

      .st6 {
        display: none;
      }
    </style>
  </defs>
  <g id="Layer_2">
    <image class="st5" width="2392" height="1372" transform="translate(986.7 1377.2) scale(0)" xlink:href="Logomacbookblack-1.png"/>
    <path class="st4" d="M54.5,70.6c-1-1.7-.8-4,.1-5.8s2.7-3,4.6-3.7,3.9-.9,5.9-.7c.3,0,.6,0,.8.3.1.2,0,.5,0,.8-1.2,3.6-2.6,7.2-2.7,10.9,0,.9,0,1.9.4,2.8s1.1,1.6,2,1.8c1.1.2,2.3-.4,3-1.2s1-2,1.3-3.1c.7-3.1.8-6.2.9-9.4,0-.4,0-.9.2-1.2.2-.4.4-.7.7-.9.5-.5,1.2-.9,1.8-1.2.4-.2.8-.3,1.2-.2.6.3.5,1.2.3,1.8-1,4-1.7,8.1-1.9,12.2,0,.7,0,1.5.7,1.6.3,0,.5,0,.7-.2.4-.2.7-.4,1-.7.2-.2.4-.3.6-.3.3,0,.4.5.5.8,0,.2,0,.4,0,.6,0,.1,0,.3,0,.4,0,.2-.2.2-.4.3-1.9,1.2-3.9,2.1-6,2.7-.1,0-.2,0-.3,0-.1,0-.2-.2-.2-.3-.3-1.3.8-2.9,0-4.1-.3.9-.6,1.9-1.2,2.6-.3.3-.6.5-.9.7-.9.5-1.9.9-3,1s-2.1-.3-2.9-1c-1.3-1.2-1.6-3.1-1.7-4.8-.1-3.8.6-7.7,2-11.3-1.4.2-2.8.5-3.9,1.5-1.2,1.1-1.4,2.9-1.1,4.5,0,.2.1.5,0,.7,0,.1-.2.2-.3.3-.6.5-1.3,1-1.9,1.5-.2.1-.5.3-.6.1,0,0,0-.2-.1-.2-.2-.8-.4-1.6-.4-2.4,0-.9.3-1.7.8-2.4"/>
    <path class="st4" d="M60.4,72.2c-.2,1,0,2,.2,2.9,0,.4.2.9.3,1.3.4,1,1.1,1.9,2.1,2.3.2.1.5.2.8.3,1.1.3,2.2.4,3.3.1s2-1,2.5-2c.5-1.1.4-2.4,1-3.5,0,0,0-.1,0-.2,0,0-.2,0-.3,0-.1.2-.2.3-.3.5-.4.7-.9,1.4-1.3,2.1-.2.3-.4.7-.7,1-.3.3-.6.4-1,.6-.4.2-.8.3-1.2.3-.6,0-1.2-.2-1.7-.6s-.8-.9-1.1-1.4c-.1-.2-.2-.4-.3-.7-.4-.9-.5-1.9-1.1-2.7-.1-.2-.3-.3-.5-.4-.2,0-.3-.1-.5-.1,0,0-.1,0-.2,0s0,.1,0,0Z"/>
  </g>
  <g id="Layer_4">
    <path class="st1" d="M93.8,78.7"/>
    <path class="st1" d="M76.5,69l1,.8c.4-.9,1-1.6,1.8-2.2,0,.6,0,1.2,0,1.8-.3,3.1-.5,6.3-.8,9.4.7-.3,1.3-.5,2-.8.2,0,.4-.2.5-.3.1-.1.1-.3.2-.5.2-1,.3-2,.4-3,0-1,.1-1.9.5-2.8.3-.7.8-1.3,1.3-1.9.4-.5.8-.9,1.3-1.3s1.2-.5,1.8-.3c.2,0,.4.2.6,0,0,0,.1-.1.2-.2.4-.5.8-1,1.3-1.4.3-.3.5-.8.2-1.1-.1-.1-.3-.2-.4-.2-1-.2-2.1-.2-3,.2-.7.3-1.2.9-1.7,1.5-.6.7-1.3,1.4-1.9,2.1-.1-.3,0-.7.1-1.1.2-.5.3-1,.2-1.5s-.4-1-.9-1.1c-.5-.1-1,.1-1.4.4-1.2.8-2.2,1.9-3.1,3-.1.2-.3.3-.3.6s0,.5.3,0Z"/>
    <path class="st1" d="M78.9,73.2c0,.4,0,.8,0,1.2-.3,1.4-.5,2.9-.7,4.3,0,.1,0,.3.1.3,0,0,.1,0,.2,0,.6-.1,1.1-.4,1.6-.6.3-.2.7-.4.9-.7.1-.2.2-.5.2-.8,0-.5.1-1,.1-1.5,0-.6,0-1.2-.1-1.8,0-.2,0-.4-.2-.5-.2-.3-.5-.4-.8-.5s-.6,0-.9.1c-.2,0-.4.2-.4.3Z"/>
    <path class="st1" d="M76.1,69.1c.2.5.7.9,1.2,1,0,0,0,0,.1,0,0,0,0,0,.1,0,.3-.3.4-.7.7-1,.1-.1.3-.2.4-.4.1-.1.2-.3.4-.5.2-.2.4-.4.7-.6"/>
  </g>
  <g id="Layer_3" class="st6">
    <path class="st2" d="M77.7,199.5c-.8-1.9-.5-4.3.6-6.1s3-3,5-3.7,4.2-.7,6.2-.3c-1.6,3.1-2.6,6.6-3,10.1-.1,1.2-.2,2.4.2,3.6s1.4,2.1,2.6,2.2c1.2,0,2.2-.7,2.7-1.8.2-.4.3-.9.5-1.3,1.1-4,1.7-8.2,1.9-12.4,1.4-.6,2.8-1.3,4.2-2-1.7,5.2-2.9,10.7-2.9,16.2,0,.1,0,.3.1.4,0,0,.2,0,.3,0,.9-.3,1.8-.6,2.6-.9.2.6.4,1.2.5,1.8-2.1.8-4.2,1.8-6.1,3v-4.2c-.3,1.2-1.1,2.2-2.1,2.7s-2.2.8-3.4.8c-.6,0-1.1,0-1.6-.4-.9-.5-1.4-1.4-1.7-2.4-1.6-4.2-1.4-9,.6-13-2-.3-4,1.1-4.8,3-.2.6-.4,1.2-.4,1.8,0,1,.7,2,1.6,2.4-1.3.6-2.5,1.5-3.5,2.6-.5-2.2-.9-4.5,0-6.6.4-1.1,1.1-2,1.9-2.8"/>
  </g>
  <g id="Layer_5">
    <path class="st1" d="M98.8,65.4c-.5-.2-1.1-.3-1.7-.4-2.9-.2-5.9,1.1-7.7,3.4s-2.4,5.5-1.6,8.3c.2.7.6,1.5,1.2,1.9,1,.7,2.4.2,3.4-.6s1.5-1.9,2.3-2.9c0,0,0-.1.2-.1.3,0,.4.3.3.6-.5,3.5-.8,7.1-.9,10.6,0,.3,0,.6.2.7,0,0,.2,0,.3.1,1.2.3,2.6,0,3.6-.7.3-.2.6-.5.9-.7.2-.2.4-.4.6-.7.3-.6.2-1.1,0-1.8-.7.2-1.4.4-1.8,1.1-.1.2-.2.4-.4.5s-.4.2-.6.1c.4-5.8,1.1-11.7,1.9-17.5,0-.7.2-1.4,0-1.9Z"/>
  </g>
  <g id="Layer_21">
    <path class="st1" d="M60.2,16.5c0,2.1-1.1,4-2.6,5.4s-3.6,2.1-5.6,2.3c-1.7.2-3.5,0-5.3-.2-2.8-.2-5.6,0-8.4.5,0-.5.4-.9.8-1.1s.9-.3,1.4-.4c3.7-.5,7.5.2,11.3-.2,1.4-.2,2.8-.5,3.9-1.3.9-.6,1.6-1.5,2.3-2.4.7-.9,1.4-1.7,2.2-2.6Z"/>
  </g>
  <g id="Layer_7">
    <path class="st0" d="M95.6,67.5c-1-.5-2.2-.2-3.1.5s-1.4,1.7-1.7,2.7c-.4,1.2-.6,2.4-.5,3.7,0,.4,0,.8.3,1,.3.3.7.3,1.1.2s.7-.4,1-.6c1.4-1.2,2.4-2.7,3-4.5.2-.5.3-1.1.3-1.6s-.3-1.1-.4-1.4Z"/>
  </g>
  <g id="Layer_8">
    <path class="st1" d="M100.8,69.7l.9-1.4c.2-.4.6-.8,1-.6-.5,2.7-.8,5.4-.9,8.1,0,.5,0,1.1.2,1.5.4.8,1.4,1.3,2.3,1.2s1.7-.6,2.5-1.2c.7-.6,1.4-1.3,1.9-2.1.1-.2.3-.4.5-.3.2,0,.2.3.2.5,0,.9-.5,1.9,0,2.7.3.5,1,.7,1.6.6s1.1-.4,1.5-.8c.9-.7,1.6-1.6,2.1-2.7.2-.3.3-.6.2-1-.1-.5-.7-.7-1.1-.8-.5.4-.8,1-1.1,1.6,0,.2-.2.5-.5.5-.2,0-.2-.4-.2-.6.5-3.2,1-6.3,1.6-9.5,0-.3,0-.6-.2-.7-.1,0-.3,0-.4,0-.5.2-1.1.3-1.6.5-.2,0-.4.1-.5.2-.2.1-.2.4-.3.6-.2.9-.4,1.8-.5,2.7-.3,2.1-1.2,4.1-2.7,5.7-.2.3-.5.5-.8.8-.3.3-.7.4-1.2.5-.1,0-.2,0-.3,0,0,0,0,0,0-.2-.1-.5-.1-1.1-.1-1.6.1-2.4.5-4.8.6-7.2,0-.4,0-.9-.2-1.2-.2-.3-.4-.4-.7-.6-.9-.4-2-.2-2.7.4-.3.3-.6.7-.9,1.1-.4.6-.8,1.2-1.1,1.8,0,.2-.2.5-.1.7,0,.3.4.5.8.7.1,0,.2,0,.3,0,.1,0,.2-.2.3-.3.4-.6.7-1.4,1.4-1.6"/>
  </g>
  <g id="Layer_9">
    <path class="st4" d="M115.1,68.6c.3.4.6.9,1.1.8.3,0,.5-.4.6-.6.2-.3.3-.6.5-.8,0-.1.2-.3.3-.4s.3-.1.4,0c0,0,.1.2.1.4,0,.6-.1,1.2-.2,1.7-.5,2.3-.7,4.7-.7,7.1,0,.3,0,.5.1.7,0,.2.2.3.4.4.7.4,1.6.2,2.3-.2s1.2-1.1,1.7-1.7c.2-.2.4-.5.6-.7.2-.2.4-.5.4-.8s0-.6-.3-.8c-.2-.1-.5,0-.7,0s-.3.3-.5.5c-.4.5-.7,1-1.1,1.5-.1.2-.3.3-.4.2,0,0-.1-.2-.1-.3,0-.4,0-.9.1-1.3.4-2.6.7-5.2,1-7.8,0-.3,0-.6,0-.8-.1-.6-.8-1.1-1.4-1.1s-1.3.2-1.8.6-.9.9-1.3,1.5c-.4.5-.7,1-1.1,1.4-.1.2-.3.4-.2.6,0,0,0,.1.2.2.3.3.6.5,1,.5.3,0,.6-.3.8-.6.5-.7,1-1.3,1.5-2"/>
  </g>
  <g id="Layer_11">
    <path class="st4" d="M123.8,69.8c-.2-1-.4-2.2.2-3.1.2-.3.4-.5.6-.7.4-.4.8-.8,1.3-1,.5-.2,1.1-.1,1.7,0,1.2.1,2.4.2,3.5.3.7,0,1.4.1,2-.1.3-.1.6-.3.9-.2.4,0,.6.6.5,1s-.5.7-.8,1c-2.6,2.3-4.8,5-7,7.7-.2.2-.4.5-.4.8,0,.1,0,.2,0,.3,0,0,.2.1.2.2.5.2,1.1.2,1.6.2.7,0,1.4,0,2.1-.2.6,0,1.2-.1,1.6-.5.2-.1.4-.3.6-.3.3,0,.5.4.6.7,0,.2,0,.3,0,.5,0,.2-.2.3-.3.5-.3.3-.5.6-.9.8-.3.2-.6.2-1,.3-.6,0-1.3.1-1.9.1-1.7,0-3.4,0-5.1-.2-.3,0-.7,0-.9-.3-.2-.3,0-.7.1-1.1,1.7-3.1,4.6-5.5,6.2-8.7,0-.2.2-.3,0-.5s-.2-.1-.3-.2c-.9-.3-1.8-.4-2.7-.4-.2,0-.5,0-.7.2s-.3.4-.2.6c0,.1.2.2.3.3.1.2,0,.5,0,.8s-.4.4-.6.5c-.4.3-.8.5-1.2.7-.1,0-.3,0-.4,0,0,0-.1-.2-.2-.3-.2-.8-.1-1.7.3-2.5s1.1-1.3,2-1.5"/>
    <path class="st4" d="M65.9,37.5c.4.3.9.6,1.4.4.7-.3.7-1.4,1.4-1.6.1,0,.2,0,.3,0,.2.1.2.4.1.6-.5,3.3-.9,6.5-1,9.8,0,.1,0,.3,0,.4.1.1.3.1.5,0,.5,0,1.1-.2,1.5-.5.4-.4.7-.9.8-1.5s0-1.1,0-1.7c0-2.7,1.5-5.4,3.7-7,.4-.3,1-.6,1.4-.3.4.3.4.9.4,1.3-.2,2.7-.7,5.3-.8,8,0,.3,0,.6.2.9.2.4.8.5,1.2.4s.8-.4,1.1-.7c.9-.8,1.8-1.8,2.4-2.9.1-.3.3-.6.2-1s-.4-.6-.7-.6c-.3,0-.5.4-.7.7-.4.6-.8,1.1-1.4,1.4-.3-1,0-2,.3-3,.5-1.7.8-3.4,1-5.1,0-.5.1-1.1-.1-1.6-.3-.5-.8-.8-1.4-.9s-1.2,0-1.7.3c-1.5.6-2.8,1.8-3.6,3.2,0,.1-.1.3-.3.4s-.3.1-.4,0c0,0,0-.1,0-.2-.2-1,.3-2.2-.2-3-.4-.6-1.3-.8-2-.6s-1.3.8-1.8,1.3c-.5.6-1,1.2-1.4,1.9-.3.4-.5.9-.5,1.4.4.2.8.4,1.2.4.5,0,.8-.5,1.1-.9.3-.5.7-1,1-1.5"/>
  </g>
  <g id="Layer_13">
    <path class="st4" d="M141.6,64.6c-1.8.5-3.4,1.5-4.6,2.8s-2.1,3.1-2.5,4.9c-.1.5-.2,1.1-.2,1.6,0,.7.2,1.4.3,2.1,0,.3.2.7.4,1,.3.4.8.7,1.4.7s1.1-.1,1.6-.3c1-.4,1.9-1.2,2.6-2.1.3-.4.6-.9,1.2-1,0,0,.2,0,.2,0,.1,0,.1.2.1.4,0,.5-.2,1-.3,1.5s0,1.1.5,1.3c.2.1.5.2.8.2.3,0,.6,0,.9,0,.6-.2,1-.6,1.5-1.1.5-.6,1-1.1,1.5-1.7.2-.2.5-.5.5-.8s0-.7-.3-.9c-.2-.1-.5,0-.7,0s-.4.4-.5.6c-.2.3-.4.6-.7.9-.2.2-.4.5-.7.4-.2,0-.2-.4-.2-.6,0-3,.7-5.9,1.1-8.9,0-.2,0-.5-.1-.7,0,0-.2-.1-.3-.2-2.2-.8-4.8-.2-6.4,1.5"/>
    <path class="st4" d="M60.5,34.4c-1.8.5-3.4,1.5-4.6,2.8s-2.1,3.1-2.5,4.9c-.1.5-.2,1.1-.2,1.6,0,.7.2,1.4.3,2.1,0,.3.2.7.4,1,.3.4.8.7,1.4.7s1.1-.1,1.6-.3c1-.4,1.9-1.2,2.6-2.1.3-.4.6-.9,1.2-1,0,0,.2,0,.2,0,.1,0,.1.2.1.4,0,.5-.2,1-.3,1.5s0,1.1.5,1.3c.2.1.5.2.8.2.3,0,.6,0,.9,0,.6-.2,1-.6,1.5-1.1.5-.6,1-1.1,1.5-1.7.2-.2.5-.5.5-.8s0-.7-.3-.9c-.2-.1-.5,0-.7,0s-.4.4-.5.6c-.2.3-.4.6-.7.9-.2.2-.4.5-.7.4-.2,0-.2-.4-.2-.6,0-3,.7-5.9,1.1-8.9,0-.2,0-.5-.1-.7,0,0-.2-.1-.3-.2-2.2-.8-4.8-.2-6.4,1.5"/>
  </g>
  <g id="Layer_12">
    <path class="st3" d="M139.8,67c-.6.2-1,.5-1.4,1-1.5,1.6-2.1,3.8-1.9,6,0,.4.1.9.5,1.2.3.3.8.3,1.2.2s.7-.4,1.1-.7c1-.9,1.8-1.9,2.5-3.1.5-.8.8-1.6.9-2.5,0-.3,0-.7,0-1-.2-.6-.7-1-1.3-1.1s-1.2,0-1.7.2c-.6.3-1.2.6-1.7,1.1"/>
    <path class="st3" d="M59,36.1c-.6.2-1,.5-1.4,1-1.5,1.6-2.1,3.8-1.9,6,0,.4.1.9.5,1.2.3.3.8.3,1.2.2s.7-.4,1.1-.7c1-.9,1.8-1.9,2.5-3.1.5-.8.8-1.6.9-2.5,0-.3,0-.7,0-1-.2-.6-.7-1-1.3-1.1s-1.2,0-1.7.2c-.6.3-1.2.6-1.7,1.1"/>
    <path class="st4" d="M88.3,36.1c-.6.2-1,.5-1.4,1-1.5,1.6-2.1,3.8-1.9,6,0,.4.1.9.5,1.2.3.3.8.3,1.2.2s.7-.4,1.1-.7c1-.9,1.8-1.9,2.5-3.1.5-.8.8-1.6.9-2.5,0-.3,0-.7,0-1-.2-.6-.7-1-1.3-1.1s-1.2,0-1.7.2c-.6.3-1.2.6-1.7,1.1"/>
  </g>
  <g id="Layer_14">
    <path class="st4" d="M37.9,24.9c0,0-.1,0-.2,0l3.9-.7c-1.2.1-2.5.3-3.7.7Z"/>
    <path class="st4" d="M59.7,16.5c-.5,0-.9,0-1.4-.2.2,1.9-.8,4-2.6,5-1.2.7-2.6.9-4,.9-2.7.1-5.5-.2-8.2-.2-2.7,0-5.6.4-7.9,1.8-3,1.8-4.9,5.3-5.1,8.9,0,.6,0,1.3.7,1.4.3,0,.6,0,.9-.2,1-.5,2.2-1.3,2.2-2.5,0-.4-.1-.7-.2-1.1-.2-1.2,0-2.5.8-3.5.7-.9,1.7-1.6,2.8-2l-2,.4c1.8-.7,3.8-1.3,5.7-1.8,1.4-.4,2.9-.8,4.4-.7.9,0,1.8.3,2.6.5,1.8.4,3.6.4,5.4.2.7,0,1.5-.2,2.2-.5,1.7-.6,3.2-1.9,4.1-3.5.5-1,.8-2,.9-3.1-.4,0-.8,0-1.2,0Z"/>
    <path class="st4" d="M60.1,19.2c1-1.7,1.2-3.7.8-5.6,0,0,0,0,0-.1,0-.1-.3,0-.4,0-.7.5-1.4,1-2.1,1.4-.1,0-.2.1-.3.2-.2.2,0,.5,0,.8.3,1.3,0,2.6,0,3.8,0,.2,0,.5.1.6.1.2.4.2.6.2s.4-.2.5-.3c.4-.4.7-.9.9-1Z"/>
  </g>
  <g id="Layer_15">
    <path class="st1" d="M37.3,63c1.4.5,2.9.5,4.3-.1s2.4-1.7,2.8-3.1c.4-1.3.3-2.7.1-4-.6-5-2-9.9-3-14.8-1-4.9-1.8-10-1.1-15,.1-1.1.4-2.2.9-2.8l2.7-.5c.2,0,.3,0,.4,0,.2.2,0,.5-.1.7-.5.5-1,1-1.4,1.6-1.8,2.5-1.7,5.7-1.4,8.7.6,6.3,1.6,12.6,3.1,18.8.5,2,1,4,.8,6.1-.2,2-1.4,4.1-3.3,4.9-1.3.5-2.9.4-4.3.3-.5,0-1,0-1.4-.3-.6-.3-.8-1.2,1-.5Z"/>
  </g>
  <g id="Layer_43">
    <path class="st1" d="M44.7,23.7c-2,1.5-3,4-3.2,6.5s.3,5,.8,7.4c1,5,2,10,3,15.1.5,2.5,1,5.2-.1,7.5-.4.8-.9,1.6-1.6,2.1.6-1.1,1.3-2.3,1.6-3.5.6-2.8-.9-5.7-1.4-8.5-.3-1.3-.3-2.6-.5-3.9-.4-3.8-1.6-7.5-2.1-11.3s-.5-7.9,1.4-11.2c.2-.4.5-.8.9-1.1s.9-.3,1.3,0,.4.8.2,1Z"/>
  </g>
  <g id="Layer_44">
    <path class="st1" d="M38.2,58.1c-.3-.3-.7-.5-1.1-.4s-.8.2-1.2.4c-.9.5-1.6,1.4-1.8,2.3s0,2.1.8,2.8c.7.6,1.6.9,2.5,1,1.3.2,2.7,0,3.9-.4.4-.1.7-.3,1-.4,1.1-.6,1.8-1.8,2.3-3-.8,1-1.7,2-2.8,2.6-1,.6-2.2.8-3.3.7-.4,0-.7-.1-1.1-.3-.3-.1-.5-.3-.8-.5-.2-.2-.3-.3-.3-.6,0-.4.3-.7.6-.9.6-.5,1.1-1.2,1.3-2,0-.3.2-.6.1-.9s-.3-.6-.1-.3Z"/>
  </g>
  <g id="Layer_45">
    <path class="st1" d="M45.5,53c.6,2.2.5,4.6-.2,6.8-.2.6-.5,1.3-.8,1.9-.7,1.2-1.8,2.1-3.1,2.7s-2.7.7-4.1.4c-.4,0-.7-.2-1.1-.4-.4-.2-.7-.5-1-.8-.2-.2-.5-.4-.6-.7-.5-.7-.6-1.6-.2-2.4,0-.2.2-.4.4-.6s.5-.1.7,0c.1,0,.2.2.2.4.3.6.5,1.1.8,1.7.2.5.4.9.8,1.2.4.3.8.5,1.3.6.5.1,1,.2,1.5.2.8,0,1.6-.4,2.3-.9s1.2-1.2,1.6-1.9c.3-.4.5-.9.7-1.3.8-2.2.2-4.7.8-6.8Z"/>
  </g>
  <g id="Layer_47">
    <path class="st1" d="M40.8,39.1l-4.2,3.9c-.8.8-1.7,1.6-2,2.6-.1.3-.2.6-.2,1-.3,1.9,0,4,1.2,5.5-.9-.4-1.4-1.4-1.6-2.4-.5-1.7-.5-3.5.3-5.1.9-1.9,2.7-3.2,4.4-4.4.8-.5,1.5-1.1,2.4-1.3,0,0-.1,0-.2.2Z"/>
    <path class="st1" d="M36.1,39.2c-1.1,1.2-2.1,2.4-2.8,3.9-.8,1.7-.9,3.6-.5,5.4s1.4,3.4,2.9,4.5c1.5,1.2,3.5,1.9,5.4,1.3-2.1,0-4.2-.7-5.6-2.2-1.9-1.9-2.5-4.9-1.6-7.4.7-1.7,2.1-3.1,2.5-4.9,0-.1,0-.3,0-.4s-.2-.2-.3-.2Z"/>
  </g>
  <g id="Layer_48">
    <path class="st1" d="M38.9,51.2c1,.4,2.2.4,3.1,0,.2,0,.4-.2.5-.4s.2-.4,0-.5c-.1-.1-.3-.2-.5-.2s-.4,0-.5,0c-.2,0-.5.1-.7.2-.2,0-.5.1-.7.1-.6,0-1.1-.3-1.5-.8-.4-.5-.5-1.3-.4-1.9s.6-1.2,1.2-1.6c.4-.3.9-.5,1.1-.9,0-.1,0-.3,0-.4-.1-.2-.4-.2-.7-.2-.4,0-.8.3-1.1.6-.8.7-1.1,1.7-1.2,2.7,0,.5,0,1.1.1,1.6.2.7.7,1.5,1.2,1.7Z"/>
  </g>
  <g id="Layer_50">
    <path class="st1" d="M41.1,51.3c.5,0,1-.2,1.4-.5.1-.1.2-.3.2-.4,0-.1-.1-.3-.2-.3-.3-.2-.6-.2-.9-.2s-.6.2-1,.2c-.7,0-1.4-.1-1.8-.6-.1-.2-.2-.4-.3-.6,0-.2-.1-.3-.2-.5,0-.4.1-.7.3-1,.2-.3.3-.6.5-.8.3-.4.8-.7,1.2-.9.3-.2.5-.3.8-.4.3,0,.5-.1.8-.1.2,0,.4,0,.5,0s.3-.2.3-.4c0-.2-.1-.4-.3-.4s-.4,0-.6,0c-.6.2-1.2.5-1.7.8-.5.4-1,.8-1.4,1.3s-.7,1.1-.8,1.7,0,1.3.5,1.8c.7.8,2,.9,2.8,1.5Z"/>
  </g>
  <g id="Layer_16">
    <path class="st1" d="M41.4,63.5c-.2.2-.5.3-.8.3-1.3.2-2.6.2-3.9,0-.5-.1-.9-.2-1.3-.5-.5-.4-.9-.9-1.1-1.6s-.2-1.3,0-1.9c.1-.8.5-1.7,1.2-2.1.4-.2,1-.3,1.5-.3.4,0,.7,0,1.1.2.7.3,1.1,1.1,1.3,1.8.2.9,0,1.9-.6,2.6s-1.5,1.1-2.4.9c.8.4,1.6.7,2.5.7s1.7,0,2.6,0Z"/>
  </g>
  <g id="Layer_17">
    <path class="st1" d="M43.7,22.5c1.1.1,2,1,2.5,2s.5,2.2.2,3.2c-.5,2.2-1.9,4.1-3.5,5.7s-3.5,2.8-5.2,4.3-3.4,3.1-4.3,5.1-1,4.6.2,6.5c-.5-1.8.4-3.8,1.6-5.2s2.9-2.4,4.3-3.6c.7-.6,1.4-1.2,2.1-1.9,1-1,2.1-1.9,3-3,2.3-2.8,3.5-6.6,2.7-10.1-.2-1-.7-2.2-1.5-2.5l-1.8-.3c-.3,0-.6-.2-.3-.2Z"/>
  </g>
  <g id="Layer_19">
    <path class="st1" d="M33.8,42.4c-1.4,2.4-1.4,5.5,0,7.9s4,4,6.8,4.1c.5,0,1,0,1.5,0,1.1-.1,2.1-.3,3.1-.7s1.9-1.1,2.5-2c1-1.5,1-3.5.5-5.2-.6-2.1-2-4.1-4.1-4.7-1.2-.4-2.6-.2-3.8.2-.9.3-1.8.9-2.5,1.6s-1.2,1.7-1.3,2.6c0,.5,0,1,0,1.6.1.8.4,1.6.9,2.1.5.6,1.2.9,1.9,1.1.8.2,1.8.2,2.4-.4-1.2.3-2.5,0-3.3-1s-.9-2.4-.2-3.4c.2-.3.4-.5.7-.7,1.3-1.1,3.2-1.4,4.8-.8s2.8,2.1,2.9,3.8c.1,1.5-.6,3-1.6,4.2-.3.3-.6.7-1,.9-.8.5-1.7.5-2.6.5-2.3-.1-4.7-.8-6.2-2.5-.3-.3-.5-.7-.8-1.1-.8-1.3-1.5-2.8-1.3-4.3,0-.5.2-1,.3-1.5.1-.8.1-1.7.3-2.4Z"/>
    <path class="st1" d="M42.5,50.3c0,0-.2,0-.2,0-.9.3-1.9.2-2.7-.3l.3.4c-.5-.3-.9-.7-1.3-1.2-.4-.4-.6-.9-.7-1.5h0c0,0,0-.2-.2-.3,0-.1-.3-.3-.4-.2-.2,0-.3.1-.3.3,0,.1,0,.3,0,.4,0,.9.4,1.9,1,2.6.7.7,1.6,1.1,2.5,1,.4,0,.8-.1,1.1-.2.4-.1.8-.4,1-.7,0,0,0,0,0-.1,0,0,0-.1-.2-.1Z"/>
  </g>
  <g id="Layer_20">
    <path class="st1" d="M37.4,41.5c-1.4,1.1-2.4,2.5-3,4.2s-.6,3.5,0,5.1c-.4-.5-.6-1.2-.8-1.8-.2-.6-.3-1.2-.3-1.8,0-1.2.6-2.4,1.4-3.4s1.8-1.7,2.8-2.2Z"/>
  </g>
  <g id="Layer_36">
    <path class="st4" d="M83.1,45.8c-2.2,1.9-3.9,4.5-4,7.4,0,.7,0,1.4.4,2,.5,1,1.5,1.7,2.5,2,2.9,1,6.4,0,8.3-2.5,1.1-1.4,1.6-3.2,1.9-5,.8-4.7.3-9.5,1.3-14.1,0-.4.2-.8.2-1.2s-.2-.8-.6-1.1c-.3-.2-.7-.2-1-.2-3.1.1-6.1,1.7-7.8,4.3s-2.2,5.9-1.1,8.4Z"/>
    <path class="st4" d="M1022.6,716.7"/>
  </g>
  <g id="Layer_35">
    <path class="st3" d="M84.3,46.6c-.7.7-1.4,1.5-2,2.3s-1,1.9-1,2.9.5,2.1,1.3,2.7c1,.6,2.2.6,3.3.4.4,0,.8-.1,1.1-.3,1.2-.5,1.9-1.8,2.3-3,1-2.9,1-6,1.1-9.1-1.4,1.6-2.9,3.2-4.9,3.7-.8.2-1.6.3-1.2.3Z"/>
  </g>
  <g id="Layer_37">
    <path class="st0" d="M89.7,36c-1.1-.3-2.3,0-3.2.8-.2.2-.4.4-.6.7-.2.3-.5.6-.6.9-.3.6-.4,1.2-.5,1.9-.1.9-.2,1.8-.2,2.7,0,.2,0,.4.1.6.3.5,1,.7,1.5.5s1-.6,1.3-1.1c.7-.8,1.4-1.7,1.9-2.6s.8-2.1.7-3.1c0-.3,0-.7-.3-.9s-.5-.4-.2-.3Z"/>
  </g>
  <g id="Layer_38">
    <path class="st1" d="M99.8,33c-.9.3-1.6.9-2.2,1.6s-1.1,1.5-1.6,2.2c-.3.5-.6,1-.8,1.5-.2.5-.3.9-.3,1.4-.2,1-.2,2,0,3s.7,1.9,1.5,2.5c1.2.8,2.8.6,4.2.1.5-.2,1-.4,1.4-.7,1.5-1,2.3-2.8,2.8-4.5.5-1.4.8-3,.7-4.5,0-.5-.1-1-.3-1.4-.5-1.1-1.6-1.8-2.8-1.9-.4,0-.7,0-1.1,0-.6.1-1.2.3-1.8.6-.9.5-1.6,1.4-2.3,2.2"/>
  </g>
  <g id="Layer_39">
    <path class="st0" d="M99.8,34.7c-.9.3-1.4,1.1-1.8,2-.2.6-.4,1.2-.6,1.8-.3.9-.5,1.9-.3,2.9,0,.4.2.8.4,1.1.2.3.3.7.6.9.4.4,1.1.5,1.7.4.3,0,.6-.1.9-.3.5-.3.8-.8,1-1.3.6-1.3.8-2.7.7-4.2,0-.6-.2-1.2-.4-1.7s-.7-1-1.2-1.3c-.5-.2-1.1-.2-1.7,0s-1,.7-1.2,1.2"/>
  </g>
  <g id="Layer_40">
    <path class="st1" d="M120.5,59.4c-.2.8-.6,1.5-1.2,1.9-.2.2-.5.5-.6.9,0,.2,0,.5.2.6s.3.2.5.2c.4,0,.7-.2,1-.5s.5-.7.8-1c.2-.2.3-.5.4-.8s.1-.6,0-.9-.5-.5-.7-.7c0,0-.2,0-.3,0,0,0,0,.1,0,.2-.2.4-.3.8-.1.2Z"/>
  </g>
</svg>