<?xml version="1.0" encoding="UTF-8"?>
<svg xmlns="http://www.w3.org/2000/svg" version="1.1" viewBox="0 0 1512 982">
  <!-- Generator: Adobe Illustrator 30.0.0, SVG Export Plug-In . SVG Version: 2.1.1 Build 123)  -->
  <defs>
    <style>
      .st0 {
        fill: none;
      }

      .st0, .st1 {
        stroke: #001a18;
        stroke-miterlimit: 10;
      }

      .st1 {
        fill: #001a18;
      }
    </style>
  </defs>
  <g id="Layer_3">
    <circle class="st0" cx="270.6" cy="164.5" r="72.5"/>
    <circle class="st0" cx="270.6" cy="164.5" r="72.5"/>
    <circle class="st0" cx="270.6" cy="164.5" r="72.5"/>
    <circle class="st0" cx="270.6" cy="164.5" r="72.5"/>
  </g>
  <g id="Layer_4">
    <circle class="st0" cx="270.6" cy="164.5" r="26"/>
    <circle class="st0" cx="270.6" cy="164.5" r="23"/>
    <circle class="st1" cx="270.6" cy="164.5" r="2"/>
  </g>
  <g id="Layer_5">
    <path class="st0" d="M344.9,94.2c-6.3-.2-12.4,4-14.5,9.9s.2,13,5.2,16.7c1.2.9,2.8,1.8,2.9,3.4,0,.4,0,.8,0,1.2-1,7.2-2,14.3-3.1,21.5-1,7.2-2.5,15.2-8.4,19.3-.7-.8-2.1-.4-2.9.4s-1.1,1.8-1.8,2.7-1.9,1.4-2.8.8c-.2-.1-.3-.3-.5-.3-.3,0-.5.2-.7.4-2.4,2.4-4.8,4.8-7.3,7.2-2.6,2.6-5.4,5.4-6.3,9-.3,1-.3,2.1,0,3.1s1.4,1.7,2.5,1.6c.5,0,.9-.3,1.4-.5,1.6-.4,3.1.8,3.9,2.2s1.3,3,2.4,4.1,3.2,1.6,4.2.3"/>
    <path class="st0" d="M317,193.7c-1.8-1.1-3.2-2.8-4.1-4.8-.1-.3-.2-.6-.2-1,0-.9.9-1.4,1.7-1.8,2.7-1.5,5.3-3.1,7.7-5,.8-.6,1.5-1.2,1.9-2s.4-2-.3-2.6"/>
    <path class="st0" d="M326.3,174.5c1.8-.9,3.3-2.2,4.5-3.8.3-.4.5-1,.1-1.2-.1,0-.3,0-.4-.2-.5-.2-.6-1-.3-1.4s.8-.7,1.3-1c4.2-2.2,6.9-6.6,8.2-11.2s1.4-9.4,1.6-14.2c.3-5.1.7-10.3,1.1-15.4,0-.7.2-1.5.7-2,.4-.3.9-.5,1.3-.5,2.6-.4,5.5.3,7.9-.8,1-.4,1.8-1.2,2.6-1.9,1-1,2-2,2.8-3.1,2.1-3.1,2.6-7.2,1.3-10.7"/>
    <path class="st0" d="M357.9,103.3c-.3-2-1.3-3.9-2.8-5.3-.5-.4-1-1-.8-1.5,0-.2.2-.3.4-.5,1-.7,2.3-.4,3.5-.5.3,0,.7,0,.9-.3.2-.2.4-.5.5-.7,1-2.4,1.7-4.9,2.1-7.4"/>
    <path class="st0" d="M344.7,94.2c.5,0,1,0,1.4-.1.3-.1.6-.3.7-.7,0-.2,0-.4,0-.7-.1-.4-.4-.7-.7-.9-.2-.1-.3-.2-.5-.3-.5-.5-.4-1.3-.2-2,.3-1,.7-1.9,1.1-2.8.3-.7.7-1.5,1.1-2.1s1.1-1.2,1.9-1.4c1-.3,2,0,3,.2,1.3.3,2.5.8,3.7,1.5"/>
    <path class="st0" d="M237.1,177.2c.7,4.9,2.1,10,5.5,13.6,3,3.2,7.1,5.1,11.1,6.9"/>
    <path class="st0" d="M231.9,184.9c1.4,6.3,5.4,11.8,10.3,15.9s10.9,6.9,16.9,9.2"/>
    <path class="st0" d="M225.7,190c2.1,8.2,7.9,15,14.8,19.9s15,7.8,23.1,10"/>
  </g>
</svg>