<?xml version="1.0" encoding="UTF-8"?>
<svg xmlns="http://www.w3.org/2000/svg" xmlns:xlink="http://www.w3.org/1999/xlink" version="1.1" viewBox="0 0 245.7 64">
  <!-- Generator: Adobe Illustrator 30.0.0, SVG Export Plug-In . SVG Version: 2.1.1 Build 123)  -->
  <defs>
    <style>
      .st0 {
        fill: none;
        stroke: #038377;
        stroke-miterlimit: 10;
        stroke-width: 1.5px;
      }

      .st1 {
        display: none;
      }
    </style>
  </defs>
  <g id="Layer_2" class="st1">
    <image width="3276" height="1368" transform="translate(-352.3 -234.4) scale(0)" xlink:href="Rosegreen-1.png"/>
  </g>
  <g id="Layer_3">
    <path class="st0" d="M245.7,24.1c-11.7.2-23.5.3-35.2-.5-3.8-.3-7.6-.7-11.2-2-4.2-1.6-7.9-4.5-11.8-6.8-11.2-6.5-25.2-8-37.5-3.8-.3,1.3,1.1,2.3,2.4,2.8,8.4,3.6,18.2,3.8,26.7.4,1.4-.6,2.8-1.2,4.3-1.2s3.1.9,3.4,2.4c.4,2.3-2.4,3.8-4.8,4.2-4.7.9-9.4.9-14.2.9-8.7,0-17.4.1-26.2.2-4.1,0-8.4,0-12.3,1.4s-7.5,4.3-8.5,8.1c-2.6,6.8-.5,15.1,5,19.8.1-2.4-.7-4.7-1.4-7-.9-2.5-1.7-5-2.6-7.5-.4-1.2-.9-2.6-2.1-3.2-.4-.2-.8-.3-1.2-.2-.3.1-.5.3-.6.6-.6,1-.6,2.1-.6,3.3,0,5,.6,10,2.4,14.6s4.8,8.9,9.1,11.5c-1.2-3.1-.4-6.5.6-9.6s2.5-6.2,2.5-9.5c0-1.9-.5-3.7-1.1-5.4-.5-1.3-1-2.6-2-3.6-1.7-1.9-4.4-2.6-6.9-2.6s-5,.8-7.4,1.5c-3.8,1.1-7.7,2.1-11.6,2.5s-8,0-11.7-1.6c-2.7-1.2-5.3-3-8.2-3.1,3,0,5.7-1.8,8.6-2.7,4.7-1.5,9.8-1,14.7.2s9.5,2.9,14.3,3.9"/>
  </g>
  <g id="Layer_4">
    <path class="st0" d="M132.1,21.5c-3.3,0-6.6-.2-9.9-.6-4.1-.5-8.1-1.6-11.7-3-1.5-.6-3.1-.7-4.7-.6s-3.1.5-4.7.8c-1.8.4-3.7.9-5.5,1.3-.9.2-1.8.4-2.5.4-7.6.3-15.3-.1-22-1.3-8-1.9-16.9,1.5-21.6,8.2-2,2.8-3.2,6.1-4.9,9.2-4.4,8-12.1,14.4-21,16.4-1.4.3-3.2.4-4-.8-.5-.7-.4-1.7-.2-2.6.8-4.2,2.6-8.1,3.2-12.3.7-5-.5-10.1-.5-15.1,0-3,.5-6,.5-9s-.5-6.1-2.1-8.6c-.9-1.3-2.1-2.4-3.6-2.7-2.6-.6-5,1.3-6.8,3.3C5,10.2,1.6,17.4.9,25s1.4,15.4,5.9,21.6c1,1.3,2.3,2.6,3.9,2.4,1.2-.2,2.1-1.1,2.8-2.1,4.1-5.6,4.8-12.9,5.3-19.8.2-3.9.4-7.8,0-11.7-.2-1.8-.7-3.8-2.3-4.5-.7-.3-1.6-.3-2.3,0-2.8.8-4.4,3.8-5.4,6.6-1.7,4.5-2.9,9.3-2.3,14.1,0,.6.2,1.2.6,1.6.7.7,1.9.6,2.7,0s1.3-1.5,1.6-2.3c1.5-3.3,2.5-6.9,3-10.5.2-1.2-.2-2.9-1.4-2.8-.4,0-.7.3-1,.6-1.9,1.8-2.7,4.7-2.1,7.2"/>
  </g>
  <g id="Layer_5">
    <path class="st0" d="M51.9,15.9c-5.6-1-10.6-4-15.5-7-4.8-3-9.7-6.2-15.2-7.7-1.4-.4-2.9-.6-4.3-.3-.9.2-1.8.7-2.8.7"/>
  </g>
</svg>