<svg width="170" height="41" viewBox="0 0 170 41" fill="none" xmlns="http://www.w3.org/2000/svg">
<path d="M169.683 15.3317C161.613 15.4566 153.475 15.5191 145.405 15.0194C142.784 14.832 140.163 14.5822 137.68 13.7702C134.783 12.7708 132.231 10.9594 129.542 9.52274C121.817 5.4627 112.161 4.52577 103.677 7.14918C103.47 7.96119 104.436 8.5858 105.333 8.89811C111.126 11.1468 117.885 11.2717 123.748 9.14798C124.714 8.77321 125.679 8.39843 126.714 8.39843C127.748 8.39843 128.852 8.9606 129.059 9.89753C129.335 11.3342 127.403 12.2711 125.748 12.5209C122.507 13.0831 119.265 13.0831 115.954 13.0831C109.954 13.0831 103.953 13.1456 97.8838 13.208C95.056 13.208 92.0903 13.208 89.4004 14.0825C86.7106 14.9569 84.2276 16.7684 83.5379 19.1419C81.7446 23.3894 83.193 28.5737 86.9864 31.5094C87.0554 30.0103 86.5036 28.5737 86.0208 27.1371C85.4001 25.5755 84.8483 24.014 84.2276 22.4524C83.9517 21.7029 83.6069 20.8284 82.7792 20.4536C82.5033 20.3287 82.2274 20.2662 81.9515 20.3287C81.7446 20.3911 81.6067 20.5161 81.5377 20.7035C81.1239 21.3281 81.1239 22.0152 81.1239 22.7647C81.1239 25.8878 81.5378 29.0109 82.7792 31.8842C84.0207 34.7574 86.0898 37.4433 89.0556 39.0673C88.2279 37.131 88.7797 35.0073 89.4694 33.071C90.1591 31.1347 91.1937 29.1983 91.1937 27.1371C91.1937 25.9503 90.8488 24.826 90.435 23.7641C90.0901 22.9521 89.7453 22.1401 89.0556 21.5155C87.8831 20.3287 86.0208 19.8915 84.2966 19.8915C82.5723 19.8915 80.848 20.3912 79.1927 20.8284C76.5718 21.5155 73.8819 22.1401 71.1921 22.39C68.5022 22.6398 65.6744 22.3899 63.1225 21.3905C61.2603 20.641 59.467 19.5167 57.4668 19.4542C59.5359 19.4542 61.3981 18.3299 63.3983 17.7677C66.6399 16.8308 70.1575 17.1431 73.5371 17.8927C76.9167 18.6422 80.0893 19.7041 83.3999 20.3287" stroke="#038377" stroke-width="1.5" stroke-miterlimit="10"/>
<path d="M91.3311 13.7081C89.055 13.7081 86.7791 13.5832 84.503 13.3334C81.6752 13.0211 78.9163 12.334 76.4334 11.4595C75.3988 11.0847 74.2953 11.0222 73.1917 11.0847C72.0882 11.1472 71.0536 11.397 69.9501 11.5844C68.7086 11.8342 67.3981 12.1466 66.1566 12.3964C65.5359 12.5214 64.9152 12.6463 64.4324 12.6463C59.1906 12.8336 53.8798 12.5838 49.2587 11.8343C43.741 10.6475 37.6026 12.7712 34.361 16.9562C32.9816 18.7051 32.1539 20.7664 30.9814 22.7027C27.9467 27.6997 22.6359 31.6972 16.4975 32.9465C15.5319 33.1338 14.2904 33.1963 13.7386 32.4468C13.3938 32.0095 13.4628 31.3849 13.6007 30.8228C14.1525 28.1994 15.3939 25.7633 15.8078 23.1399C16.2906 20.0168 15.4629 16.8312 15.4629 13.7081C15.4629 11.8343 15.8078 9.96039 15.8078 8.08653C15.8078 6.21266 15.4629 4.27635 14.3594 2.7148C13.7386 1.90279 12.911 1.2157 11.8764 1.02831C10.0832 0.653538 8.42785 1.84031 7.18638 3.08955C3.59988 6.58744 1.32387 11.1472 0.84107 15.8943C0.358272 20.6414 1.80668 25.5135 4.91038 29.3861C5.60009 30.1981 6.49673 31.0101 7.60027 30.8852C8.42792 30.7603 9.04861 30.1981 9.53141 29.5735C12.3592 26.0756 12.8421 21.5159 13.1869 17.206C13.3249 14.77 13.4628 12.334 13.1869 9.89795C13.049 8.77363 12.7041 7.52438 11.6005 7.08715C11.1177 6.89976 10.4971 6.89976 10.0143 7.08715C8.08307 7.58685 6.97951 9.4607 6.2898 11.2096C5.11729 14.0204 4.28961 17.0186 4.70343 20.0168C4.70343 20.3916 4.84136 20.7664 5.11724 21.0162C5.60004 21.4534 6.42774 21.391 6.97951 21.0162C7.53128 20.6414 7.87612 20.0793 8.08303 19.5796C9.1176 17.5183 9.80731 15.2697 10.1522 13.0211C10.2901 12.2715 10.0142 11.2096 9.18655 11.2721C8.91067 11.2721 8.70376 11.4595 8.49684 11.6469C7.18639 12.7712 6.63464 14.5826 7.04847 16.1442" stroke="#038377" stroke-width="1.5" stroke-miterlimit="10"/>
<path d="M36.0164 10.2095C32.154 9.58493 28.7055 7.71106 25.3259 5.8372C22.0153 3.96333 18.6357 1.96454 14.8423 1.0276C13.8767 0.777755 12.8421 0.652839 11.8765 0.840225C11.2558 0.965149 10.635 1.27743 9.94531 1.27743" stroke="#038377" stroke-width="1.5" stroke-miterlimit="10"/>
</svg>
