<?xml version="1.0" encoding="UTF-8"?>
<svg id="Layer_1" xmlns="http://www.w3.org/2000/svg" version="1.1" viewBox="0 0 325.4 99.3">
  <!-- Generator: Adobe Illustrator 29.8.2, SVG Export Plug-In . SVG Version: 2.1.1 Build 3)  -->
  <defs>
    <style>
      .st0 {
        fill: none;
      }

      .st0, .st1 {
        stroke: #038377;
        stroke-miterlimit: 10;
      }

      .st1 {
        fill: #038377;
        stroke-width: .2px;
      }
    </style>
  </defs>
  <g id="Layer_5">
    <path class="st1" d="M245,44.8c.9.8,1.8,1.6,2.6,2.5v.4c-.2.2-.3.5-.5.7h-.1c-.3-.1-.6-.4-.8-.7-.6-.9-1-1.9-1.2-3h0Z"/>
    <path class="st1" d="M259.7,46.4"/>
    <g id="Layer_2">
      <path class="st0" d="M920.9-458"/>
      <path class="st0" d="M229.1,65.3c3.2,1.7,7.3,1.9,10.5.3s5.5-5.3,5.1-8.9-3.4-6.9-7-7.2c-2.2-.2-5,.5-6.2-1.3-1.5-2.2,1.2-5,3.7-5.5,3.8-.8,7.9.7,10.3,3.7-.7-2-1.4-4-1.3-6.1s1.2-4.3,3.1-5c2.9-1.1,6.2,1.7,6.3,4.8s-2.2,5.9-4.9,7.3c-.5.3-1.1.6-1.4,1.1-.5,1,.5,2.1,1.3,2.8,17.6,14.3,40,21.7,62.3,26,3.2.6,6.6,1.2,9.4,2.9s5,4.9,4.6,8.2c-.5,3.7-4.2,6.3-7.7,7.5-4.1,1.4-8.6,1.8-12.9,2.1-11.9.8-23.7,1.1-35.6.9-11.1-.2-22.4-.8-32.6-4.9-7.3-3-14.4-7.8-22.3-7.4-1.2,0-2.5.4-3,1.4-.2.5-.2,1.2-.3,1.8-.4,3.6-4.5,5.4-8,6-7.2,1.3-14.7.4-22-.4-3.1-.4-6.6-1-8.1-3.6-1.9-3.3.4-7.4.9-11.2.7-4.8-1.5-9.5-2.5-14.2-1.7-8.2.4-17.1,5.3-23.9,3.9,4,9.5,5.8,15,6.7,9.4,1.6,19.5.7,27.8-4.1,2.4-1.4,4.7-3.2,7.3-4.3s5.7-1.4,8.1,0"/>
      <g id="Layer_3">
        <path class="st0" d="M173.4,80.1c17.9-4.1,36.8-1.1,54.2,4.8,7.1,2.4,14.1,5.3,21.5,6.7,4.9.9,9.8,1.1,14.8,1.3,6.1.3,12.2.5,18.3.8,4.4.2,8.8.4,13.2.2,6.8-.3,13.5-1.3,20-3.2,2.1-.6,4.2-1.3,5.8-2.9s2.4-4,1.5-5.9"/>
      </g>
    </g>
    <g id="Layer_6">
      <path class="st0" d="M247.8,47.8c-1.4.5-2.1,2.2-1.5,3.6.2.5.5.9,1,1,.6.1,1.2-.3,1.7-.7.7-.5,1.4-.9,2.2-1s1.8.4,2,1.1c.2.7-.1,1.4-.5,2s-.9,1.2-1,1.9.2,1.6,1,1.7c.4,0,.7-.1,1-.3.7-.4,1.4-.7,2-1.1.6-.4,1.3-.8,2-.5s.9,1.3.8,2-.6,1.4-.8,2.2,0,1.7.7,2.1c.5.2,1.1.1,1.5-.1,1-.5,1.7-1.3,2.7-1.9s2.3-.6,2.9.3c.4.6.3,1.4.2,2s-.5,1.4-.4,2.1.5,1.5,1.2,1.5.6-.1.8-.3c.7-.4,1.3-1,2-1.4s1.4-.9,2.2-.8,1.6.7,1.6,1.5-.8,1.4-.9,2.3c-.2,1.1,1,2,2.1,2s2.1-.6,2.9-1.4c.9-.8,2-1.8,3.2-1.5.6.2,1.1.8,1.3,1.4s.2,1.3.2,2v1.6c0,.5.4,1,.9,1.2.3.1.6,0,1,0,.9-.2,1.8-.7,1.9-1.6"/>
      <path class="st1" d="M79.9-8.2"/>
      <path class="st0" d="M887.2-207.6"/>
      <path class="st1" d="M87,31.3c.5,1.1,1,2.2,1.4,3.3v.2s0,0-.1.2c-.2.2-.5.3-.7.5h0c-.3-.2-.4-.6-.5-.9-.2-1.1-.2-2.2,0-3.2h0Z"/>
      <path class="st1" d="M99.9,38.4"/>
      <path class="st0" d="M903.1-177"/>
      <path class="st0" d="M94.4,92.8c-10.8-4.4-22-9-31.1-16.5s-7.3-7.4-11-11.2-8.3-8.5-12.4-7.5-2.5,3.3-4.5,4.2-4.4.8-6.5.4c-5.8-1-11.3-3.7-16.4-6.4S1.9,51.3,1.9,46.2s5.5-8.6,6.7-13.2,1.2-11.8,3.9-17.4,6.6-9.7,11.6-12.7c3.8,9.3,15,15.1,24.2,17.6s10.8,1.7,16.3.7,10.6-2.1,13.9,2.3"/>
      <path class="st0" d="M64.4,44.2c3.6,4.3,10,5.8,14.6,2.3,4.6-3.5,4.7-9.3.7-12.7s-11.1-4.7-4.5-7.8,10.2,2.6,11.6,6.9c.1-2.9.3-6.2,2.6-8.3,1.6-1.1,3.6-2.1,6.6,0,1,1,1,2,1,3,0,5-5,7-9,8,0,0-1,1-1,2,7,15,20,26,31.8,36.7"/>
      <path class="st0" d="M7.3,36.7c13,2.2,25.2,8,36,15.4s20.4,18.8,32.4,25.6c12,6.8,15.1,7.3,22.7,10.8"/>
      <path class="st0" d="M88.4,35.1c-1.4,0-2.8,1.3-2.8,2.7s.2,1,.6,1.3c.5.3,1.2.2,1.8,0,.8-.2,1.7-.3,2.5,0s1.5,1,1.4,1.8c0,.7-.6,1.3-1.3,1.7s-1.3.8-1.7,1.4-.4,1.6.3,1.9c.3.2.7,0,1,0,.8,0,1.5-.2,2.3-.3.7,0,1.5-.2,2,.3.6.5.4,1.5,0,2.2s-1.1,1.1-1.6,1.7-.7,1.6-.2,2.2c.4.4.9.5,1.5.5,1.1,0,2.1-.6,3.2-.7s2.4.3,2.6,1.4c.2.7-.2,1.4-.6,1.9s-.9,1.1-1.2,1.7,0,1.5.6,1.8c.3.1.6.1.9,0,.8,0,1.6-.4,2.4-.6s1.7-.3,2.4,0,1.2,1.3.9,2c-.3.8-1.3,1-1.7,1.7-.6.9.1,2.2,1.1,2.7s2.2.2,3.2-.2c1.2-.4,2.5-.9,3.5-.1s.7,1.1.7,1.8-.3,1.3-.6,1.9c-.2.5-.5.9-.6,1.5s0,1.1.4,1.5.6.3.9.4c.9.2,2,0,2.3-.8"/>
      <path class="st1" d="M-45.7-80.5"/>
      <path class="st0" d="M776.8,41.8"/>
    </g>
  </g>
  <g id="Layer_7">
    <path class="st0" d="M94.1,92.7c10.2,4.5,21.7,4.6,32.7,4.3"/>
    <path class="st0" d="M114.6,70.4c4.9,5,11.2,7.5,17.2,10.8s7.3,11.4.4,14.6"/>
    <path class="st0" d="M126.6,97c.9-.1,1.9-.3,2.8-.4,1.2-.2,2.5-.4,3.5-1"/>
    <path class="st0" d="M98,88.4c1.5.9,3.2,1.3,4.9,1.8,7.6,1.9,15.5,3.3,23.4,2.5.6,0,1.3-.1,1.9-.3,1.2-.4,2.2-1.2,3.1-2,.6-.5,1.1-1.1,1.5-1.8,1-1.8.6-4.2-.6-5.9s-3-2.9-4.9-3.8"/>
  </g>
</svg>