<?xml version="1.0" encoding="UTF-8"?>
<svg xmlns="http://www.w3.org/2000/svg" version="1.1" viewBox="0 0 390 844">
  <!-- Generator: Adobe Illustrator 30.0.0, SVG Export Plug-In . SVG Version: 2.1.1 Build 123)  -->
  <defs>
    <style>
      .st0, .st1 {
        stroke: #020d0c;
      }

      .st0, .st1, .st2, .st3 {
        fill: none;
        stroke-miterlimit: 10;
      }

      .st0, .st3 {
        stroke-width: .5px;
      }

      .st1, .st2 {
        stroke-width: .2px;
      }

      .st2, .st3 {
        stroke: #388177;
      }
    </style>
  </defs>
  <g id="Layer_3">
    <path class="st3" d="M362.5,681.9c2.5.4,5,.2,7.4-.5.6-.2,1.2-.4,1.6-.9.8-.8.9-2,.5-3s-1-1.9-1.8-2.7c-.8-.9-1.6-1.7-2.5-2.5-.2-.2-.4-.4-.7-.5s-.6,0-.8.2c0,.1-.1.3-.2.4-.2.9.5,1.8,1.2,2.4,1.2,1.1,2.7,1.9,4.3,2.3.7.2,1.4.3,2.1.6s1.3.9,1.4,1.6c0,.6-.2,1.2-.6,1.7-1,1.3-2.7,2-4.2,2.6-2.6,1-5.2,2.1-7.9,2.2-.2,0-.4,0-.5-.2,0,0,0-.2,0-.3.3-.5,1.2-.5,1.7-.1s.7,1,.8,1.7c.2,1.6-.1,3.2.3,4.8.3,1,1,1.9,1.3,3,.3,1,.4,2,.5,3s.5,2.1,1.3,2.7c1.5,2.5,1.7,5.9.4,8.6-.8,1.7-2.1,3.1-2.4,4.9-.1.7,0,1.5,0,2.2,0,1.2-.2,2.4-.2,3.6,0,2.4.7,4.8,1.6,7,.6,3.4-.4,6.8-1.3,10-.1.4-.3.9-.5,1.3-.5.7-1.3,1-2.2,1.2s-1.7.1-2.5.2c-.6,0-1.3.4-1.3,1,0,.5.3.9.7,1.1s.9.2,1.4.2c1.4,0,2.8-.1,4-.8.3-.2.6-.4.7-.8,0-.2,0-.4,0-.6-.3-.8-.7-1.4-1.3-1.9-.8-.7-1.9-1.1-2.4-2-.3-.5-.4-1.1-.5-1.7-.6-4.4-.3-8.8-.5-13.3,0-.9-.1-1.8-.3-2.7-.4-1.4-1.1-2.8-.6-4,.2-2.9,0-5.8,0-8.7,0-2.1,0-4.3-.7-6.4-.2-.7-.5-1.3-.8-2-.3-.5-.7-1-1.2-1.1-.5,0-1,.4-1.3.7-.7.6-1.5,1.1-2.4,1.4-.5.2-1.1.3-1.6.6-.4.2-.7.5-1.1.8-1.1.9-2.4,1.5-3.8,1.8-.8.2-1.7.2-2.4-.2-.3-.2-.6-.5-.8-.9-.5-.7-.7-1.7-.5-2.5s.9-1.6,1.8-1.8c.2,0,.4,0,.5.1.2.4-.4.7-.4,1.1.3.2.7,0,1-.2s.7-.3,1,0c.2.2,0,.6-.2.8s-.5.3-.6.6,0,.6.2.7c.2,0,.5-.2.6,0,0,0,.1.2,0,.3-.1.7-1,.8-1.3,1.4-.1.2-.1.5-.1.8,0,1.7,0,3.5,0,5.1,0,.9-.5,1.6-1,2.4-2.4,3.3-4.4,7-6.3,10.6-.7,1.3-1.4,2.6-1.6,4-.2,2.1-1.1,4-1.4,6s.2,4.5,2,5.5c.8.4,1.7.6,2.6.5,1.1,0,2.1-.4,3-1,1.6-1,2.9-2.8,4.8-2.7,1.3.1,2.4,1.2,3.7,1.1.5,0,1.1-.2,1.5.1.3.3.3.8,0,1.2s-.6.6-1,.7c-1.9.9-4.3,1.7-4.9,3.8,0,.2,0,.4,0,.6.1.2.4.3.6.3.8.2,1.7.4,2.5.6.7.2,1.4.3,2.1.3s1.4-.4,1.8-1c-.9-.4-1.8-.7-2.7-1.1-.8-.3-1.6-.7-2.3-1.2s-1.1-1.4-1-2.3c0-.8.6-1.5,1.2-2.1,1-1,2.1-2,3.3-2.8.4-.3.9-.6,1.4-.5.6,0,1.1.7,1.2,1.2s.2,1.2.3,1.8c.1.7.7,1.6,1.4,1.3.2-.1.4-.4.5-.6,1.4-2.6,1.4-5.7,1.4-8.7,0-3.5,0-7,0-10.5,0-5.2-.1-10.7-3-15.1-.2-.4-.5-.7-.7-1.1-.4-.8-.4-1.7-.5-2.6-.2-1.6-.8-3.2-1.7-4.6-.8-.5-1.8,0-2.4.6s-.9,1.6-1.5,2.3c-.8,1-2,1.5-3.2,1.7s-2.5.1-3.8,0c-1,0-1.9-.2-2.8-.5-.3,0-.6-.2-.8-.5-.2-.2-.2-.5-.2-.8,0-.8,0-1.7.5-2.3.5-.6,1.3-.9,1.8-1.4.5-.5.8-1.2.7-1.9,0-.3-.1-.6-.3-.8-.4-.4-1-.4-1.5-.2s-.8.7-1.1,1.2c-1.3,2.2-1.3,5.1-.3,7.4.4.8.8,1.8.4,2.6-.2.3-.5.5-.9.7-.8.4-2,.2-2.3-.7-.1-.3-.1-.6-.1-1,0-3.4,0-6.8-.5-10.2-.2-1.5-.4-3,0-4.4s1.3-2.8,2.8-3.1c.5-.1,1.1,0,1.5.3.2.2.4.4.6.6s.5.3.8.2c.2,0,.5-.4.7-.3.2.1.1.4.2.7,0,.6.6.9,1.2,1,.3,0,.6.2.7.4,0,.1,0,.3,0,.4,0,.6-.2,1.3-.7,1.7-.2.2-.5.3-.6.6-.1.3.1.6.4.8.4.4.9.8,1.5,1.1.3.2.6.4.9.6s.4.7.3,1c-.2.5-.9.6-1.4.3s-.5-1-.2-1.5.7-.8,1.3-1,1.1-.2,1.6-.2c3.4-.3,6.8-1.2,9.9-2.1,1.5-.3,2.8-1.4,3.9-2.4.6-.5,1.1-1,1.7-1.5.3-.3.7-.6,1-.9.5-.6.9-1.3,1.3-1.9.7-1.3,1.3-2.7,1.6-4.1,0-.3,0-.7-.1-1-.3-.3-.8-.3-1.1,0s-.5.6-.7,1c-.6,1.6-1.1,3.3-1.2,5-.2,1.6-.1,3.2-.6,4.8-.5,1.6-1.6,3-2.9,4.1s-2.9,1.8-4.5,2.3c-1.1.4-2.2.6-3.3.5-.5,0-1-.2-1.3-.6-.2-.4-.1-.9,0-1.3.3-.7,1-1.2,1.6-1.7,1.5-1.1,3.1-2.1,4.2-3.6.3-.4.6-1,.4-1.5-.3-.7-1.2-.8-2-.8-.7,0-1.4-.2-1.8-.7-.2-.2-.4-.5-.6-.8-.2-.4-.5-.8-.7-1.2,0-.1-.2-.3-.2-.5,0-.5.7-.8.5-1.3,0-.2-.2-.3-.3-.4-.4-.4-.2-1.1,0-1.6s.4-1.1.1-1.6c-.1-.2-.3-.3-.4-.5-.2-.4,0-1,.4-1.3s.9-.4,1.4-.5c1.4-.2,2.8-.3,4.1.1s2.5,1.4,2.9,2.8c.2.6.2,1.1.1,1.7,0,1.3-.4,2.6-1.1,3.7-.3.4-.7.8-1.2.7-.5-.2-.5-.8-.5-1.2,0-.9-.1-2-.9-2.4,0,0-.2,0-.2,0,0,0-.1.1-.2.2-.1.2-.2.5-.2.7s0,.5.3.7c.4.2.8-.2.9-.6s-.2-.8-.4-1.2c0,0-.1-.2-.2-.2-.1,0-.2,0-.3,0-.3.2-.6.3-.9.3s-.7-.1-.9-.4c-.3-.5,0-1.2-.3-1.6-.1-.1-.3-.2-.5-.3-.5-.2-.9-.3-1.4-.5-.1,0-.3-.2-.2-.3"/>
  </g>
  <g id="Layer_10">
    <g id="Layer_5">
      <path class="st3" d="M362.1,681.7c-.2,0-.3,0-.5,0-.5,0-1-.2-1.5-.3-.3,0-.5,0-.8-.2-.4-.2-.7-.6-.8-1.1s-.2-.9-.1-1.4"/>
    </g>
    <g id="Layer_6">
      <path class="st1" d="M362.8,681.3"/>
      <path class="st2" d="M362.7,682c-.2,0-.4,0-.6-.1,0,0,0,0,0,0s0,0,0,0"/>
      <path class="st2" d="M362.2,681.6c0,0,.2,0,.2,0,0,0,0,0,.1,0,0,0,.2,0,.2,0,0,0,.1,0,.2,0,0,0,0,0,0,0s0,0,0,0"/>
      <path class="st2" d="M362.3,681.8h0c.1,0,.2,0,.3.1,0,0,0,0-.1,0,0,0,0,0-.1,0,.1,0,.2,0,.3,0,0,0,0,0,.1,0"/>
    </g>
    <g id="Layer_8">
      <path class="st0" d="M335.6,728.8"/>
      <path class="st3" d="M340.3,735.2c-.6-.3-.8-1.1-.9-1.8s-.4-1.4-1.1-1.6c-.5-.1-1,.1-1.4-.1-.2-.1-.3-.4-.5-.6-.8-.6-2.2.9-3,.2-.3-.3-.3-.8-.2-1.1s.4-.7.7-1c.5-.7.8-1.5.8-2.3-.6-.2-1.2.5-1.5,1-2,3.9-3.5,8.4-7,11.1-.4.3-.9.6-1.4.5-.2-.5,0-1.1.3-1.5s.8-.7,1.3-1c2.2-1.3,4.4-2.6,6.6-3.9,1-.6,2.1-1.3,2.4-2.4"/>
    </g>
    <g id="Layer_9">
      <path class="st3" d="M340.1,734.9c.6.6,1.5.9,2.3.7.6-.1,1.1-.4,1.7-.6s1.3-.2,1.7.2c.5.5.5,1.2.3,1.9s-.5,1.3-.4,2c.1.8.8,1.5,1.6,1.8s1.6.3,2.5.3c7.9.1,15.8.2,23.7.3"/>
    </g>
    <path class="st2" d="M339.5,733.5c.2.6.5,1.1.9,1.5,0,0,0,0,0,0s0,0,0,0"/>
    <path class="st2" d="M339.6,733.7c.1.3.3.6.5.9.2.3.4.6.7.7"/>
    <path class="st2" d="M339.4,733.4c.1.3.3.6.5.9.1.2.3.4.4.6.2.2.4.4.7.5"/>
    <path class="st2" d="M339.3,732.6c.2.3.3.6.4.9,0,.2.1.4.2.6,0,.3.2.5.3.8s.4.4.7.5"/>
    <g id="Layer_4">
      <path class="st2" d="M352.2,672.7c-.3-.1-.6-.2-.8-.4s-.5-.4-.6-.7"/>
      <path class="st0" d="M398,672.2"/>
    </g>
  </g>
</svg>