<?xml version="1.0" encoding="UTF-8"?>
<svg id="Layer_8" xmlns="http://www.w3.org/2000/svg" version="1.1" viewBox="0 0 91 131.9">
  <!-- Generator: Adobe Illustrator 30.0.0, SVG Export Plug-In . SVG Version: 2.1.1 Build 123)  -->
  <defs>
    <style>
      .st0, .st1 {
        fill: none;
        stroke: #038377;
        stroke-miterlimit: 10;
      }

      .st1 {
        stroke-width: .5px;
      }
    </style>
  </defs>
  <path class="st0" d="M47.1,6.3c.6-1,1.6-1.8,2.7-1.9s2.3.6,2.7,1.7c.4,1.4-.4,3.1.4,4.2.4.5,1.1.8,1.7.6.5-.1.9-.5,1.4-.8s1-.5,1.5-.3c.5.2.8.7.7,1.3s-.4,1-.8,1.3c-.2.1-.3.2-.5.4-.1.2-.1.4-.1.6,0,.6.5,1.1,1,1.5s1.1.6,1.7.8c.3.1.6.2.9.2.6,0,1-.7.9-1.2"/>
  <g id="Layer_7">
    <path class="st0" d="M21,101.4c-3.3,8.2-8.8,15.3-14.2,22.3-.9,1.1-1.8,2.3-2.9,3.2-.4.4-.9.7-1.5.9s-1.2,0-1.6-.4c-.3-.4-.4-.9-.3-1.4.1-2.1,1.6-3.9,3.3-5.1s3.7-1.9,5.6-2.8c2.7-1.2,5.2-2.8,7.7-4.4,1-.6,2.1-1.3,2.8-2.2"/>
  </g>
  <g id="Layer_6">
    <path class="st0" d="M55.5,51c.6-1,1.3-2.1,2.3-2.8s2.4-.9,3.4-.1c.5.4.8,1,1,1.5,2,4.6,2,9.8,1.9,14.8,0,14.9.5,29.7,1.6,44.6.2,2.2.3,4.4.9,6.6,1.1,4.5,3.7,8.6,7.2,11.5"/>
  </g>
  <g id="Layer_5">
    <path class="st1" d="M54.7,47.5c-.1-.6-.1-1.1,0-1.7,0-.2,0-.4,0-.5,0-.2,0-.4,0-.6-.1-.5-.2-1-.3-1.5"/>
  </g>
  <g id="Layer_3">
    <path class="st0" d="M109.4-738.6"/>
    <path class="st0" d="M56.1,26.3c-1.7.1-3.3.8-4.9,1.3-5.2,1.8-10.8,2.5-16.3,2-.6,0-1.2-.1-1.7-.4s-.9-.8-.8-1.4c0-.5.5-.9.8-1.3.5-.6.9-1.2,1.1-1.9.2-.5.3-1.2,0-1.6-.4-.6-1.3-.7-2-.8-1-.2-2-.7-2.7-1.5-.7-.7-1.2-1.7-2.2-2-.7-.2-1.5,0-2.3-.1-.5,0-1-.3-1.5-.3-.7,0-1.4.5-1.9,1.1-1.6,1.8-2.6,4.1-3.2,6.4s-.7,4.8-.9,7.2c-.2,2.3-.3,4.5-.5,6.8,0,1.4-.2,2.8.6,3.9.3.4.7.8,1.2.8.3,0,.6,0,.8-.2,1.6-.8,2.7-2.4,3.4-4.1s1-3.4,1.6-5.2c.3-1,.7-2,1.5-2.7s2-1,2.9-.5c.4.3.8.7.7,1.3,0,.4-.3.7-.5,1-1.8,2.3-4,4.4-4.6,7.2-1.2,1.9-.4,4.9,1.7,5.9,1.3.6,2.8.5,4.2.4,1.6-.2,3.3-.4,4.9-.6,1-.2,2-.3,2.9,0s1.6,1.6,1,2.4c-.2.3-.6.6-.8.9s-.2,1,.3,1c.5,0,.8-.6,1.3-.6.4,0,.5.6.3,1s-.5.6-.8.9-.3.8,0,1.1c.3.2.6.1,1,.2.8.2.8,1.6.2,2.2-.7.7-1.8.9-2.7.6s-1.7-1-2.3-1.7c-.4-.5-.7-1.1-.9-1.7-.3-1.4.3-2.8,1.3-3.9s2.2-1.7,3.4-2.5c2.2-1.5,4.1-3.2,5.8-5.2.9-1.1,1.7-2.2,2.9-3s2.8-1,3.9-.2c.8.5,1.2,1.5,1.5,2.4,1,2.6,2,5.5,1,8.2-1.1,3-4.2,4.6-7,6-1.6.8-3.2,1.6-4.9,2.3-1.2.6-2.5,1.2-3.1,2.4-.8,1.5-.4,3.3-.4,5,0,2.8-1.4,5.3-2.7,7.8-1.8,3.3-3.8,6.4-5.8,9.4-5.3,8.4-10.7,17.2-10.9,27.1,0,3.9.9,8.2,4.1,10.3,1.7,1.1,3.9,1.5,5.9,1,3.3-.9,5.6-3.9,8.7-5.2,3.9-1.6,8.3-.4,12.5-.4,1.2,0,2.5-.2,3.5-.8s1.6-2.1,1-3.2c-.5-.9-1.5-1.2-2.5-1.2s-1.9.5-2.7,1c-2.3,1.3-4.6,2.9-5.9,5.2s-1.3,5.5.5,7.5c1.7,1.8,4.5,2,7,2.4,1.7.3,3.7,1.3,3.4,3,0,.4-.3.8-.6,1.2-1.9,2.1-5.7,1.4-7.3-.9s-1.5-5.5-.2-8c1.4-3,4.7-5.4,7.9-4.8.7.1,1.5.4,2.2.3,1.3-.3,2-1.8,2.3-3.1,1.1-4.3,1.3-8.8,1.4-13.2.2-6.6.4-13.3.7-19.9.2-6.7.4-13.7-2-19.9-1.7-4.5-4.8-8.8-4.6-13.7"/>
    <path class="st0" d="M72.4,125.6c-2.2,0-4.5.2-6.7.6-1.3.3-2.8.9-2.8,2.2,0,.7.4,1.3.9,1.7,2.3,2.1,6.2,1.3,8.3-1s2.9-5.4,3.4-8.5c1.2-6.3,1.8-12.7.8-19-.6-3.8-1.8-7.5-2.2-11.4-.5-4.7,0-9.6,1.8-14,2-5.3,5.7-10.7,3.9-16.1-.6-1.7-1.6-3.3-2.5-4.9-1.7-3.2-2.4-6.8-3.1-10.3-1-4.8-1.9-9.5-2.9-14.3-.2-.8-.4-1.8-1-2.3s-1.9-.5-2.2.3c-.4,1.2,1.5,1.8,2.7,1.7,6.9-.8,13.4-4.4,17.9-9.7,1.6-1.9,2.8-4.9.9-6.5-1.5-1.3-3.9-.4-5.9-.5-3.5-.2-5.8-3.7-7.6-6.8-.4-.8-.9-1.7-.6-2.5.4-1.2,2-1.6,3.1-1s1.8,1.7,2.4,2.8c1.3,2.4,2.4,5,3.3,7.6.8,2.4,1.3,5.5-.6,7.2-.9.8-2.1,1.1-3.3,1.3-4.4.8-8.9.9-13.2.3-2-.3-4.3-.9-5.4-2.6-2.1-3,.3-6.9.6-10.5C62.7,4.7,58.2,0,53.4.5s-8.2,6.5-5.8,10.8c.2.4.5.8.6,1.3,0,.7-.4,1.4-.6,2.1-.5,1.7.8,3.5,2.3,4.3s3.4,1,5.1,1.4c.5.1,1.1.3,1.5.6,1.1.8,1.2,2.6.5,3.8s-1.9,2-3.1,2.8c-3,2-5.9,4.1-8.7,6.4-.5.4-1.1,1-1.2,1.6-.1,1.5,1.9,2,3.3,1.9,9.4-.7,18.9-6.8,21-15.9.6-2.5.6-5.2,1.1-7.7.5-2.4,1.3-4.7,2.6-6.8.5-.9,1.7-1.9,2.5-1.3.7.5.6,1.5.3,2.3-2.7,9.3-11,16.8-20.5,18.7"/>
  </g>
</svg>