<?xml version="1.0" encoding="UTF-8"?>
<svg id="Layer_3" xmlns="http://www.w3.org/2000/svg" version="1.1" viewBox="0 0 1512 982">
  <!-- Generator: Adobe Illustrator 30.0.0, SVG Export Plug-In . SVG Version: 2.1.1 Build 123)  -->
  <defs>
    <style>
      .st0 {
        fill: none;
        stroke: #038377;
        stroke-miterlimit: 10;
      }
    </style>
  </defs>
  <path class="st0" d="M393.4,226.7c-.6-1.3-2-1.9-3.2-2.7s-2.1-2.5-1.1-3.6c1-1,2.7-.3,3.8.6,1.3,1,2.6,2,3.8,3,.5.4,1,.9,1.2,1.6.3,1.2-.7,2.2-1.4,3.2-1.2,1.6-1.8,3.7-1.6,5.7,0,.7.3,1.4.9,1.6.3,0,.7,0,1-.1,2.8-1.1,4.8-3.8,5-6.8,0-.2,0-.5,0-.7-.3-.6-1.2-.4-1.8,0-1.8,1.4-2.5,4-1.6,6s3.6,3.2,5.6,2.3,3-3.9,1.6-5.7c-.2-.3-.5-.6-.9-.6-.7-.1-1.3.5-1.6,1.2-.8,1.9-.2,4.2,1.1,5.8s3,2.8,4.8,3.8c24.2,15,48.4,29.9,72.9,44.4.3-.5-.3-1.1-.7-1.5-21.3-17.3-43.4-33.6-66.2-49-1.1-.7-2.2-1.5-3.5-1.5s-2.7,1.1-2.4,2.4c5.5,2.3,10,6.8,12.1,12.2,1.1,1.9.9,4.3.5,6.4s-1.1,4.3-1,6.5c.1,2.3,1.1,4.5,2.6,6.3s3.4,3.2,5.4,4.2c1.8,1,3.8,1.7,5.4,3l4.7,5.8c1.4-1.2,1.3-3.6,2.8-4.7.9-.6,2.1-.6,3-.2s1.8,1.1,2.6,1.8c1.2,1.1,2.4,2.3,3,3.8s.6,3.4-.4,4.7c-.6.8-1.7,1.5-1.6,2.5.1.8.9,1.2,1.7,1.3s1.5-.1,2.3-.1c1.6,0,3.1.8,4.3,1.7,2,1.5,3.7,3.3,5.6,4.9s4,3.1,6.4,3.7c1.7.4,3.4.3,5.1.3,7.6-1,14.7-5.2,19.2-11.3,2.6-3.6,4.4-7.8,4.6-12.2s-1.6-9-5-11.8c-3.2-2.7-7.5-3.5-11.4-5-1-.4-2-.8-2.8-1.4-1.9-1.5-2.6-4-4.1-5.9-.4-.5-.8-.9-1.3-1.1s-1.3,0-1.7.4c-1.3,1.3-1.8,3.1-3,4.5-1.9,2.3-5.4,3.1-8,1.6s-3.8-5-2.4-7.6c.7-1.3,2-2.7,1.3-4.1-.7-1.3-2.5-1.1-3.9-1.4-3.9-.7-5.7-5.6-9.4-7.1-1.8-.7-3.8-.5-5.6.1s-3.4,1.7-4.9,2.8c-2.5,1.7-4.9,3.6-6.7,6s-2.9,5.5-2.4,8.5c.5,3,2.6,5.5,4.9,7.5,5.8,5,13.2,7.5,20.3,10.3,1.3.5,2.7,1.2,3.2,2.5.1.3.2.7,0,1-.3,1-1.9.9-2.3,0s.3-2.1,1.3-2.3,2,.2,2.7.8,1.2,1.6,1.7,2.4c1.4,2.5,2.9,4.9,4.6,7.3,1,1.4,2.4,3,4.1,2.8,1,0,1.9-.8,2.2-1.8s0-2.1-.7-2.7c-.6-.5-1.9-.5-1.9.3,0,.1,0,.3,0,.4.5,1.4,2.5,1.6,3.7.8s1.8-2.2,2.5-3.5c1.4-2.9,2.9-5.7,4.7-8.5,1-1.5,2.1-3,3.7-3.8.4-.2.9-.4,1.4-.3,1.1.2,1.7,1.7,1.1,2.6s-1.8,1.3-2.9,1.1-2-1.1-2.6-2-1.2-1.9-1.8-2.8c-.9-1.3-2-2.5-3.3-3.5-.8-.6-1.8-1.2-2.8-1.2s-2.2.5-2.6,1.4.3,2.3,1.4,2.3c.2,0,.4,0,.5-.2.3-.3.2-.8,0-1.2-.8-1.2-2.4-1.6-3.9-1.6s-3,0-4.2-.9"/>
</svg>