<svg xmlns="http://www.w3.org/2000/svg" version="1.1" xmlns:xlink="http://www.w3.org/1999/xlink" width="36" height="35"><svg width="36" height="35" viewBox="0 0 36 35" fill="none" xmlns="http://www.w3.org/2000/svg">
<path d="M18 0.5C27.6784 0.5 35.5 8.12434 35.5 17.5C35.5 26.8757 27.6784 34.5 18 34.5C8.32165 34.5 0.5 26.8757 0.5 17.5C0.5 8.12434 8.32165 0.5 18 0.5Z" fill="white" stroke="black"></path>
<path d="M17.0099 10.7701C16.3447 10.8644 15.6319 11.0058 15.0618 11.4301C14.4916 11.8544 14.0639 12.4673 14.159 13.1744C14.159 13.363 14.254 13.5987 14.254 13.7873C14.254 14.2588 13.8739 14.5888 13.4938 14.8716C13.2562 15.0602 13.0186 15.2016 12.7335 15.2488C12.5435 15.2488 12.3534 15.2488 12.2584 15.1545C12.2108 15.1074 12.1633 15.0131 12.1158 14.9188C11.8307 14.2116 12.1158 13.4102 12.4959 12.703C12.9711 11.7601 13.6363 10.9115 14.4916 10.2986C15.3468 9.68577 16.3922 9.30862 17.3425 9.26147C19.1005 9.26147 20.9061 9.30862 22.6642 9.16718C23.2819 9.12004 23.8996 9.02575 24.4222 8.74288C24.9449 8.46002 25.3725 7.89429 25.3725 7.28142C25.3725 6.85712 25.0874 6.38568 25.325 5.96138C25.4201 5.81995 25.5626 5.67851 25.7051 5.58423C25.9427 5.39565 26.1803 5.25422 26.4179 5.11278C26.5604 5.0185 26.703 4.97135 26.8455 5.01849C26.9881 5.06564 27.0831 5.20707 27.0831 5.39565C27.5107 6.80997 26.893 8.50716 25.6576 9.30862C25.4201 9.45005 25.1825 9.59148 24.9449 9.68577C24.2797 9.96863 23.6145 10.2515 22.9493 10.3458C21.9514 10.4872 20.9061 10.3458 19.9083 10.3458C18.9105 10.3458 17.9127 10.5344 17.1049 10.6758L17.0099 10.7701Z" fill="#001A18" stroke="#001A18" stroke-width="0.5" stroke-miterlimit="10"></path>
<path d="M19.386 10.0638C19.7661 10.3939 20.1463 10.771 20.3363 11.2425C20.3838 11.431 20.4314 11.6196 20.4789 11.8082C20.4789 12.1382 20.4789 12.4682 20.4314 12.7982C20.1938 14.0711 19.2435 15.1083 18.1981 15.9097C17.1528 16.7112 16.06 17.4183 15.2522 18.4084C14.3019 19.3041 13.7317 20.6713 13.8743 21.9913C14.0168 23.3114 14.9196 24.5371 16.155 25.0085C16.6301 25.1971 17.1528 25.2443 17.628 25.2914C18.4357 25.3386 19.291 25.2914 20.0512 25.0085C20.2888 24.9143 20.5264 24.7728 20.6689 24.5843C20.954 24.3014 21.0966 23.9242 21.1916 23.5471C21.3817 22.7928 21.3817 21.9913 21.1441 21.2842C20.8115 20.4356 20.0512 19.7284 19.1484 19.4927C18.2457 19.257 17.2478 19.4927 16.5351 20.1056C16.2975 20.2941 16.1075 20.5299 15.9649 20.8127C15.8699 21.0484 15.8224 21.3784 15.8224 21.6142C15.8224 22.2742 16.0124 22.9342 16.4876 23.4056C16.9627 23.8771 17.6755 24.1128 18.2932 23.8771C18.4357 23.8299 18.6258 23.7357 18.7208 23.5942C18.8158 23.4528 18.8158 23.2642 18.7208 23.1228C18.6258 23.0285 18.5307 23.0285 18.4357 22.9813C18.1981 22.9813 17.9606 22.9813 17.723 22.9813C17.4854 22.9813 17.2003 22.9813 17.0578 22.7928C16.7727 22.5099 16.8677 21.9913 17.1053 21.6613C17.5804 21.0013 18.5783 20.7184 19.3385 21.0956C20.0987 21.4727 20.5739 22.3213 20.3838 23.1228C20.3363 23.3585 20.2413 23.5942 20.0987 23.7828C19.9087 24.0185 19.6711 24.2071 19.4335 24.3485C18.5783 24.8671 17.4379 25.0557 16.4876 24.6785C15.5373 24.3014 14.8246 23.3585 14.8246 22.3213C14.8246 21.9442 14.9196 21.567 15.0621 21.237C15.1572 20.9542 15.2997 20.6713 15.4898 20.4356C15.7274 20.1527 16.0124 19.917 16.2975 19.6813C16.8677 19.2098 17.4379 18.7384 18.0081 18.2669C19.291 17.1355 20.5739 15.8154 20.954 14.1654C21.1916 13.5525 21.2391 12.8454 21.1916 12.1853C21.1916 11.6667 21.0491 11.1482 20.8115 10.6767C20.5739 10.2053 20.0987 9.87527 19.5761 9.82813C19.5286 9.82813 19.4335 9.82812 19.4335 9.92241C19.4335 9.92241 19.4335 9.92241 19.4335 9.96956C19.4811 10.0638 19.5286 10.111 19.5286 10.0638H19.386Z" fill="#001A18" stroke="#001A18" stroke-width="0.5" stroke-miterlimit="10"></path>
<path d="M15.663 29.6102C16.1857 29.3744 16.5658 28.903 16.6133 28.3373C16.6608 27.7715 16.3758 27.2058 15.8531 26.9701C15.3304 26.7344 14.7127 26.8758 14.3326 27.3001C14.095 27.583 14 27.9601 14 28.3373C14 28.573 14 28.8559 14.0475 29.0916C14.1901 29.563 14.5702 29.893 14.9978 30.1287C16.0907 30.6945 17.5161 30.3645 18.3714 29.563C19.2267 28.7616 19.6543 27.4887 19.6543 26.2629C19.6543 25.9329 19.6543 25.5558 19.5118 25.2258C19.3692 24.8486 19.2742 24.4243 19.1791 24.0471C18.9416 23.1043 18.799 22.1614 18.6565 21.2656C18.2288 19.2856 17.9438 17.2584 17.7537 15.2312C17.7062 14.524 17.6587 13.7697 17.7537 13.0626C17.8487 12.3554 18.1813 11.6482 18.704 11.1768C18.8465 11.0354 18.9891 10.9411 19.0841 10.7525C19.1791 10.5639 19.2267 10.3753 19.0841 10.2339C19.0366 10.1868 18.9891 10.1396 18.8941 10.0925C18.3714 9.85675 17.7537 10.0925 17.4211 10.5639C17.0885 11.0354 16.9459 11.5539 16.8984 12.1197C16.6133 14.1469 16.9459 16.2212 17.3261 18.2484C17.8012 20.7942 18.3714 23.34 19.0366 25.7915C19.0366 26.4515 19.0841 27.1115 18.9416 27.7715C18.799 28.4316 18.4189 28.9973 17.8487 29.3273C17.7062 29.4216 17.5636 29.4687 17.3736 29.5159C16.8034 29.7045 16.1857 29.7987 15.663 29.563V29.6102Z" fill="#001A18" stroke="#001A18" stroke-width="0.5" stroke-miterlimit="10"></path>
</svg><style>@media (prefers-color-scheme: light) { :root { filter: none; } }
@media (prefers-color-scheme: dark) { :root { filter: none; } }
</style></svg>