<svg xmlns="http://www.w3.org/2000/svg" version="1.1" xmlns:xlink="http://www.w3.org/1999/xlink" width="119.7" height="75.7"><svg xmlns="http://www.w3.org/2000/svg" xmlns:xlink="http://www.w3.org/1999/xlink" version="1.1" viewBox="0 0 119.7 75.7">
  <!-- Generator: Adobe Illustrator 30.0.0, SVG Export Plug-In . SVG Version: 2.1.1 Build 123)  -->
  <defs>
    <style>
      .st0 {
        stroke: #00baab;
      }

      .st0, .st1, .st2, .st3, .st4, .st5, .st6, .st7, .st8, .st9 {
        stroke-miterlimit: 10;
      }

      .st0, .st1, .st2, .st3, .st6, .st8, .st9 {
        stroke-width: .5px;
      }

      .st0, .st3, .st7 {
        fill: #001a18;
      }

      .st1, .st2, .st3, .st5, .st7, .st8 {
        stroke: #001a18;
      }

      .st1, .st5, .st9 {
        fill: #fcfaf0;
      }

      .st2 {
        fill: #ff0051;
      }

      .st4 {
        stroke: #000;
        stroke-width: 1.5px;
      }

      .st6 {
        stroke: #940500;
      }

      .st6, .st8 {
        fill: none;
      }

      .st10 {
        opacity: .2;
      }

      .st9 {
        stroke: #fcfaf0;
      }

      .st11 {
        display: none;
      }
    </style>
  </defs>
  <g id="SvgjsG1067">
    <image class="st10" width="2392" height="1372" transform="translate(958.3 1365.9) scale(0)" xlink:href="Logoblack-1.png"></image>
    <path class="st7" d="M26.2,59.2c-1-1.7-.8-4,.1-5.8s2.7-3,4.6-3.7,3.9-.9,5.9-.7c.3,0,.6,0,.8.3.1.2,0,.5,0,.8-1.2,3.6-2.6,7.2-2.7,10.9,0,.9,0,1.9.4,2.8s1.1,1.6,2,1.8c1.1.2,2.3-.4,3-1.2s1-2,1.3-3.1c.7-3.1.8-6.2.9-9.4,0-.4,0-.9.2-1.2.2-.4.4-.7.7-.9.5-.5,1.2-.9,1.8-1.2.4-.2.8-.3,1.2-.2.6.3.5,1.2.3,1.8-1,4-1.7,8.1-1.9,12.2,0,.7,0,1.5.7,1.6.3,0,.5,0,.7-.2.4-.2.7-.4,1-.7.2-.2.4-.3.6-.3.3,0,.4.5.5.8,0,.2,0,.4,0,.6,0,.1,0,.3,0,.4,0,.2-.2.2-.4.3-1.9,1.2-3.9,2.1-6,2.7-.1,0-.2,0-.3,0-.1,0-.2-.2-.2-.3-.3-1.3.8-2.9,0-4.1-.3.9-.6,1.9-1.2,2.6-.3.3-.6.5-.9.7-.9.5-1.9.9-3,1s-2.1-.3-2.9-1c-1.3-1.2-1.6-3.1-1.7-4.8-.1-3.8.6-7.7,2-11.3-1.4.2-2.8.5-3.9,1.5-1.2,1.1-1.4,2.9-1.1,4.5,0,.2.1.5,0,.7,0,.1-.2.2-.3.3-.6.5-1.3,1-1.9,1.5-.2.1-.5.3-.6.1,0,0,0-.2-.1-.2-.2-.8-.4-1.6-.4-2.4,0-.9.3-1.7.8-2.4"></path>
    <path class="st7" d="M32,60.9c-.2,1,0,2,.2,2.9,0,.4.2.9.3,1.3.4,1,1.1,1.9,2.1,2.3.2.1.5.2.8.3,1.1.3,2.2.4,3.3.1s2-1,2.5-2c.5-1.1.4-2.4,1-3.5,0,0,0-.1,0-.2,0,0-.2,0-.3,0-.1.2-.2.3-.3.5-.4.7-.9,1.4-1.3,2.1-.2.3-.4.7-.7,1-.3.3-.6.4-1,.6-.4.2-.8.3-1.2.3-.6,0-1.2-.2-1.7-.6s-.8-.9-1.1-1.4c-.1-.2-.2-.4-.3-.7-.4-.9-.5-1.9-1.1-2.7-.1-.2-.3-.3-.5-.4-.2,0-.3-.1-.5-.1,0,0-.1,0-.2,0s0,.1,0,0Z"></path>
  </g>
  <g id="SvgjsG1066">
    <path class="st3" d="M65.9,74"></path>
  </g>
  <g id="SvgjsG1065" class="st11">
    <path class="st4" d="M49.3,188.2c-.8-1.9-.5-4.3.6-6.1s3-3,5-3.7,4.2-.7,6.2-.3c-1.6,3.1-2.6,6.6-3,10.1-.1,1.2-.2,2.4.2,3.6s1.4,2.1,2.6,2.2c1.2,0,2.2-.7,2.7-1.8.2-.4.3-.9.5-1.3,1.1-4,1.7-8.2,1.9-12.4,1.4-.6,2.8-1.3,4.2-2-1.7,5.2-2.9,10.7-2.9,16.2,0,.1,0,.3.1.4,0,0,.2,0,.3,0,.9-.3,1.8-.6,2.6-.9.2.6.4,1.2.5,1.8-2.1.8-4.2,1.8-6.1,3v-4.2c-.3,1.2-1.1,2.2-2.1,2.7s-2.2.8-3.4.8c-.6,0-1.1,0-1.6-.4-.9-.5-1.4-1.4-1.7-2.4-1.6-4.2-1.4-9,.6-13-2-.3-4,1.1-4.8,3-.2.6-.4,1.2-.4,1.8,0,1,.7,2,1.6,2.4-1.3.6-2.5,1.5-3.5,2.6-.5-2.2-.9-4.5,0-6.6.4-1.1,1.1-2,1.9-2.8"></path>
  </g>
  <g id="SvgjsG1064">
    <path class="st3" d="M72.5,58.4l.9-1.4c.2-.4.6-.8,1-.6-.5,2.7-.8,5.4-.9,8.1,0,.5,0,1.1.2,1.5.4.8,1.4,1.3,2.3,1.2s1.7-.6,2.5-1.2c.7-.6,1.4-1.3,1.9-2.1.1-.2.3-.4.5-.3.2,0,.2.3.2.5,0,.9-.5,1.9,0,2.7.3.5,1,.7,1.6.6s1.1-.4,1.5-.8c.9-.7,1.6-1.6,2.1-2.7.2-.3.3-.6.2-1-.1-.5-.7-.7-1.1-.8-.5.4-.8,1-1.1,1.6,0,.2-.2.5-.5.5-.2,0-.2-.4-.2-.6.5-3.2,1-6.3,1.6-9.5,0-.3,0-.6-.2-.7-.1,0-.3,0-.4,0-.5.2-1.1.3-1.6.5-.2,0-.4.1-.5.2-.2.1-.2.4-.3.6-.2.9-.4,1.8-.5,2.7-.3,2.1-1.2,4.1-2.7,5.7-.2.3-.5.5-.8.8-.3.3-.7.4-1.2.5-.1,0-.2,0-.3,0,0,0,0,0,0-.2-.1-.5-.1-1.1-.1-1.6.1-2.4.5-4.8.6-7.2,0-.4,0-.9-.2-1.2-.2-.3-.4-.4-.7-.6-.9-.4-2-.2-2.7.4-.3.3-.6.7-.9,1.1-.4.6-.8,1.2-1.1,1.8,0,.2-.2.5-.1.7,0,.3.4.5.8.7.1,0,.2,0,.3,0,.1,0,.2-.2.3-.3.4-.6.7-1.4,1.4-1.6"></path>
  </g>
  <g id="SvgjsG1063">
    <path class="st7" d="M86.7,57.3c.3.4.6.9,1.1.8.3,0,.5-.4.6-.6.2-.3.3-.6.5-.8,0-.1.2-.3.3-.4s.3-.1.4,0c0,0,.1.2.1.4,0,.6-.1,1.2-.2,1.7-.5,2.3-.7,4.7-.7,7.1,0,.3,0,.5.1.7,0,.2.2.3.4.4.7.4,1.6.2,2.3-.2s1.2-1.1,1.7-1.7c.2-.2.4-.5.6-.7.2-.2.4-.5.4-.8s0-.6-.3-.8c-.2-.1-.5,0-.7,0s-.3.3-.5.5c-.4.5-.7,1-1.1,1.5-.1.2-.3.3-.4.2,0,0-.1-.2-.1-.3,0-.4,0-.9.1-1.3.4-2.6.7-5.2,1-7.8,0-.3,0-.6,0-.8-.1-.6-.8-1.1-1.4-1.1s-1.3.2-1.8.6-.9.9-1.3,1.5c-.4.5-.7,1-1.1,1.4-.1.2-.3.4-.2.6,0,0,0,.1.2.2.3.3.6.5,1,.5.3,0,.6-.3.8-.6.5-.7,1-1.3,1.5-2"></path>
  </g>
  <g id="SvgjsG1062">
    <path class="st7" d="M95.5,58.4c-.2-1-.4-2.2.2-3.1.2-.3.4-.5.6-.7.4-.4.8-.8,1.3-1,.5-.2,1.1-.1,1.7,0,1.2.1,2.4.2,3.5.3.7,0,1.4.1,2-.1.3-.1.6-.3.9-.2.4,0,.6.6.5,1s-.5.7-.8,1c-2.6,2.3-4.8,5-7,7.7-.2.2-.4.5-.4.8,0,.1,0,.2,0,.3,0,0,.2.1.2.2.5.2,1.1.2,1.6.2.7,0,1.4,0,2.1-.2.6,0,1.2-.1,1.6-.5.2-.1.4-.3.6-.3.3,0,.5.4.6.7,0,.2,0,.3,0,.5,0,.2-.2.3-.3.5-.3.3-.5.6-.9.8-.3.2-.6.2-1,.3-.6,0-1.3.1-1.9.1-1.7,0-3.4,0-5.1-.2-.3,0-.7,0-.9-.3-.2-.3,0-.7.1-1.1,1.7-3.1,4.6-5.5,6.2-8.7,0-.2.2-.3,0-.5s-.2-.1-.3-.2c-.9-.3-1.8-.4-2.7-.4-.2,0-.5,0-.7.2s-.3.4-.2.6c0,.1.2.2.3.3.1.2,0,.5,0,.8s-.4.4-.6.5c-.4.3-.8.5-1.2.7-.1,0-.3,0-.4,0,0,0-.1-.2-.2-.3-.2-.8-.1-1.7.3-2.5s1.1-1.3,2-1.5"></path>
    <path class="st7" d="M37.5,26.2c.4.3.9.6,1.4.4.7-.3.7-1.4,1.4-1.6.1,0,.2,0,.3,0,.2.1.2.4.1.6-.5,3.3-.9,6.5-1,9.8,0,.1,0,.3,0,.4.1.1.3.1.5,0,.5,0,1.1-.2,1.5-.5.4-.4.7-.9.8-1.5s0-1.1,0-1.7c0-2.7,1.5-5.4,3.7-7,.4-.3,1-.6,1.4-.3.4.3.4.9.4,1.3-.2,2.7-.7,5.3-.8,8,0,.3,0,.6.2.9.2.4.8.5,1.2.4s.8-.4,1.1-.7c.9-.8,1.8-1.8,2.4-2.9.1-.3.3-.6.2-1s-.4-.6-.7-.6c-.3,0-.5.4-.7.7-.4.6-.8,1.1-1.4,1.4-.3-1,0-2,.3-3,.5-1.7.8-3.4,1-5.1,0-.5.1-1.1-.1-1.6-.3-.5-.8-.8-1.4-.9s-1.2,0-1.7.3c-1.5.6-2.8,1.8-3.6,3.2,0,.1-.1.3-.3.4s-.3.1-.4,0c0,0,0-.1,0-.2-.2-1,.3-2.2-.2-3-.4-.6-1.3-.8-2-.6s-1.3.8-1.8,1.3c-.5.6-1,1.2-1.4,1.9-.3.4-.5.9-.5,1.4.4.2.8.4,1.2.4.5,0,.8-.5,1.1-.9.3-.5.7-1,1-1.5"></path>
  </g>
  <g id="SvgjsG1061">
    <path class="st7" d="M113.2,53.3c-1.8.5-3.4,1.5-4.6,2.8s-2.1,3.1-2.5,4.9c-.1.5-.2,1.1-.2,1.6,0,.7.2,1.4.3,2.1,0,.3.2.7.4,1,.3.4.8.7,1.4.7s1.1-.1,1.6-.3c1-.4,1.9-1.2,2.6-2.1.3-.4.6-.9,1.2-1,0,0,.2,0,.2,0,.1,0,.1.2.1.4,0,.5-.2,1-.3,1.5s0,1.1.5,1.3c.2.1.5.2.8.2.3,0,.6,0,.9,0,.6-.2,1-.6,1.5-1.1.5-.6,1-1.1,1.5-1.7.2-.2.5-.5.5-.8s0-.7-.3-.9c-.2-.1-.5,0-.7,0s-.4.4-.5.6c-.2.3-.4.6-.7.9-.2.2-.4.5-.7.4-.2,0-.2-.4-.2-.6,0-3,.7-5.9,1.1-8.9,0-.2,0-.5-.1-.7,0,0-.2-.1-.3-.2-2.2-.8-4.8-.2-6.4,1.5"></path>
    <path class="st7" d="M32.1,23c-1.8.5-3.4,1.5-4.6,2.8s-2.1,3.1-2.5,4.9c-.1.5-.2,1.1-.2,1.6,0,.7.2,1.4.3,2.1,0,.3.2.7.4,1,.3.4.8.7,1.4.7s1.1-.1,1.6-.3c1-.4,1.9-1.2,2.6-2.1.3-.4.6-.9,1.2-1,0,0,.2,0,.2,0,.1,0,.1.2.1.4,0,.5-.2,1-.3,1.5s0,1.1.5,1.3c.2.1.5.2.8.2.3,0,.6,0,.9,0,.6-.2,1-.6,1.5-1.1.5-.6,1-1.1,1.5-1.7.2-.2.5-.5.5-.8s0-.7-.3-.9c-.2-.1-.5,0-.7,0s-.4.4-.5.6c-.2.3-.4.6-.7.9-.2.2-.4.5-.7.4-.2,0-.2-.4-.2-.6,0-3,.7-5.9,1.1-8.9,0-.2,0-.5-.1-.7,0,0-.2-.1-.3-.2-2.2-.8-4.8-.2-6.4,1.5"></path>
  </g>
  <g id="SvgjsG1060">
    <path class="st5" d="M111.4,55.7c-.6.2-1,.5-1.4,1-1.5,1.6-2.1,3.8-1.9,6,0,.4.1.9.5,1.2.3.3.8.3,1.2.2s.7-.4,1.1-.7c1-.9,1.8-1.9,2.5-3.1.5-.8.8-1.6.9-2.5,0-.3,0-.7,0-1-.2-.6-.7-1-1.3-1.1s-1.2,0-1.7.2c-.6.3-1.2.6-1.7,1.1"></path>
    <path class="st5" d="M30.7,24.7c-.6.2-1,.5-1.4,1-1.5,1.6-2.1,3.8-1.9,6,0,.4.1.9.5,1.2.3.3.8.3,1.2.2s.7-.4,1.1-.7c1-.9,1.8-1.9,2.5-3.1.5-.8.8-1.6.9-2.5,0-.3,0-.7,0-1-.2-.6-.7-1-1.3-1.1s-1.2,0-1.7.2c-.6.3-1.2.6-1.7,1.1"></path>
    <path class="st7" d="M59.9,24.7c-.6.2-1,.5-1.4,1-1.5,1.6-2.1,3.8-1.9,6,0,.4.1.9.5,1.2.3.3.8.3,1.2.2s.7-.4,1.1-.7c1-.9,1.8-1.9,2.5-3.1.5-.8.8-1.6.9-2.5,0-.3,0-.7,0-1-.2-.6-.7-1-1.3-1.1s-1.2,0-1.7.2c-.6.3-1.2.6-1.7,1.1"></path>
  </g>
  <g id="SvgjsG1059">
    <path class="st7" d="M54.7,34.4c-2.2,1.9-3.9,4.5-4,7.4,0,.7,0,1.4.4,2,.5,1,1.5,1.7,2.5,2,2.9,1,6.4,0,8.3-2.5,1.1-1.4,1.6-3.2,1.9-5,.8-4.7.3-9.5,1.3-14.1,0-.4.2-.8.2-1.2s-.2-.8-.6-1.1c-.3-.2-.7-.2-1-.2-3.1.1-6.1,1.7-7.8,4.3s-2.2,5.9-1.1,8.4Z"></path>
    <path class="st7" d="M994.3,705.4"></path>
  </g>
  <g id="SvgjsG1058">
    <path class="st5" d="M56,35.3c-.7.7-1.4,1.5-2,2.3s-1,1.9-1,2.9.5,2.1,1.3,2.7c1,.6,2.2.6,3.3.4.4,0,.8-.1,1.1-.3,1.2-.5,1.9-1.8,2.3-3,1-2.9,1-6,1.1-9.1-1.4,1.6-2.9,3.2-4.9,3.7-.8.2-1.6.3-1.2.3Z"></path>
  </g>
  <g id="SvgjsG1057">
    <path class="st1" d="M61.4,24.6c-1.1-.3-2.3,0-3.2.8-.2.2-.4.4-.6.7-.2.3-.5.6-.6.9-.3.6-.4,1.2-.5,1.9-.1.9-.2,1.8-.2,2.7,0,.2,0,.4.1.6.3.5,1,.7,1.5.5s1-.6,1.3-1.1c.7-.8,1.4-1.7,1.9-2.6s.8-2.1.7-3.1c0-.3,0-.7-.3-.9s-.5-.4-.2-.3Z"></path>
  </g>
  <g id="SvgjsG1056">
    <path class="st3" d="M71.5,21.7c-.9.3-1.6.9-2.2,1.6s-1.1,1.5-1.6,2.2c-.3.5-.6,1-.8,1.5-.2.5-.3.9-.3,1.4-.2,1-.2,2,0,3s.7,1.9,1.5,2.5c1.2.8,2.8.6,4.2.1.5-.2,1-.4,1.4-.7,1.5-1,2.3-2.8,2.8-4.5.5-1.4.8-3,.7-4.5,0-.5-.1-1-.3-1.4-.5-1.1-1.6-1.8-2.8-1.9-.4,0-.7,0-1.1,0-.6.1-1.2.3-1.8.6-.9.5-1.6,1.4-2.3,2.2"></path>
  </g>
  <g id="SvgjsG1055">
    <path class="st1" d="M71.5,23.4c-.9.3-1.4,1.1-1.8,2-.2.6-.4,1.2-.6,1.8-.3.9-.5,1.9-.3,2.9,0,.4.2.8.4,1.1.2.3.3.7.6.9.4.4,1.1.5,1.7.4.3,0,.6-.1.9-.3.5-.3.8-.8,1-1.3.6-1.3.8-2.7.7-4.2,0-.6-.2-1.2-.4-1.7s-.7-1-1.2-1.3c-.5-.2-1.1-.2-1.7,0s-1,.7-1.2,1.2"></path>
  </g>
  <g id="SvgjsG1054">
    <path class="st3" d="M48.1,56.9c-.3.3-.6.6-.7,1.1s.1.9.5,1.1c.4.2.9,0,1.1-.4s.5-.7.7-1.1.6-.7,1-.7c0,0,.1,0,.2,0,0,0,0,0,0,0-.2,2.3-.4,4.7-.8,7-.2,1.1-.4,2.2-.5,3.2,0,.2,0,.5.2.6,0,0,.2,0,.3,0,.5,0,1-.3,1.4-.6.5-.3.9-.6,1.2-1.1.2-.3.2-.7.3-1.1.1-1.1.3-2.2.4-3.3.1-.9.2-1.7.6-2.5.4-.8.9-1.4,1.6-2,.4-.4.8-.7,1.4-.8.5,0,1,.2,1.6.1.5,0,1-.4,1.3-.7s.6-.8.8-1.3c0-.1.1-.2.1-.4,0-.3-.3-.4-.6-.5-1.7-.4-3.6.2-4.8,1.4-.5.5-.8,1.1-1.3,1.5,0,0-.2.2-.3.2s-.3,0-.3-.2c0,0,0-.2,0-.3.2-.4.3-.8.4-1.2s0-.9-.4-1.1c-.3-.3-.7-.4-1.1-.3s-.8.2-1.1.4c-1.4.8-2.4,2.1-3.1,2.8Z"></path>
    <path class="st2" d="M70.2,49.7"></path>
  </g>
  <g id="SvgjsG1053">
    <path class="st8" d="M102.3,45.8"></path>
    <path class="st3" d="M91.5,49.6c-.1.3-.4.5-.7.7,0,0-.1.2-.2.2-.1.2-.2.4-.2.6s.1.4.3.5c0,0,.1,0,.2,0,.4,0,.7,0,1-.3s.5-.5.7-.8c.2-.3.4-.7.5-1,.2-.4.3-.8.3-1.2,0-.2-.1-.4-.3-.6-.1-.1-.3-.2-.4-.3s-.4,0-.5.1c-.2.1-.2.3-.3.5-.2.5-.4,1-.5,1.2Z"></path>
  </g>
  <g id="SvgjsG1052">
    <path class="st3" d="M10.8,12.2c-1.4.2-2.9.5-4.1,1.4s-2.1,2.2-1.9,3.7c0,.4.2.9.2,1.3,0,1-.8,1.7-1.6,2.3-.5.4-1,.7-1.6.8-.4,0-.8,0-1-.2-.1-.1-.2-.3-.3-.5-.6-1.5,0-3.2.8-4.7,1-2,2.4-3.8,4.2-5.1s4-2.1,6-2.2c3.7,0,7.5.1,11.2-.2,1.3-.1,2.6-.3,3.7-.9s2-1.8,2-3.1c0-.9-.6-1.9-.1-2.8.2-.3.5-.6.8-.8.5-.4,1-.7,1.5-1,.3-.2.6-.3.9-.2.3.1.5.4.5.8.9,3-.4,6.6-3,8.3-.5.3-1,.6-1.5.8-1.4.6-2.8,1.2-4.2,1.4-2.1.3-4.3,0-6.4,0s-4.2.4-5.9.7Z"></path>
  </g>
  <g id="SvgjsG1051">
    <path class="st3" d="M15.8,10.8c.8.7,1.6,1.5,2,2.5.1.4.2.8.3,1.2,0,.7,0,1.4-.1,2.1-.5,2.7-2.5,4.9-4.7,6.6s-4.5,3.2-6.2,5.3c-2,1.9-3.2,4.8-2.9,7.6s2.2,5.4,4.8,6.4c1,.4,2.1.5,3.1.6,1.7.1,3.5,0,5.1-.6.5-.2,1-.5,1.3-.9.6-.6.9-1.4,1.1-2.2.4-1.6.4-3.3-.1-4.8-.7-1.8-2.3-3.3-4.2-3.8s-4,0-5.5,1.3c-.5.4-.9.9-1.2,1.5-.2.5-.3,1.2-.3,1.7,0,1.4.4,2.8,1.4,3.8s2.5,1.5,3.8,1c.3-.1.7-.3.9-.6s.2-.7,0-1c-.2-.2-.4-.2-.6-.3-.5,0-1,0-1.5,0s-1.1,0-1.4-.4c-.6-.6-.4-1.7.1-2.4,1-1.4,3.1-2,4.7-1.2s2.6,2.6,2.2,4.3c-.1.5-.3,1-.6,1.4-.4.5-.9.9-1.4,1.2-1.8,1.1-4.2,1.5-6.2.7s-3.5-2.8-3.5-5c0-.8.2-1.6.5-2.3.2-.6.5-1.2.9-1.7.5-.6,1.1-1.1,1.7-1.6,1.2-1,2.4-2,3.6-3,2.7-2.4,5.4-5.2,6.2-8.7.5-1.3.6-2.8.5-4.2,0-1.1-.3-2.2-.8-3.2s-1.5-1.7-2.6-1.8c-.1,0-.3,0-.3.2,0,0,0,0,0,.1.1.2.2.3.2.2Z"></path>
  </g>
  <g id="SvgjsG1050">
    <path class="st3" d="M9.2,51.7c1.1-.5,1.9-1.5,2-2.7s-.5-2.4-1.6-2.9-2.4-.2-3.2.7c-.5.6-.7,1.4-.7,2.2,0,.5,0,1.1.1,1.6.3,1,1.1,1.7,2,2.2,2.3,1.2,5.3.5,7.1-1.2s2.7-4.4,2.7-7c0-.7,0-1.5-.3-2.2-.3-.8-.5-1.7-.7-2.5-.5-2-.8-4-1.1-5.9-.9-4.2-1.5-8.5-1.9-12.8-.1-1.5-.2-3.1,0-4.6s.9-3,2-4c.3-.3.6-.5.8-.9s.3-.8,0-1.1c-.1-.1-.2-.2-.4-.3-1.1-.5-2.4,0-3.1,1s-1,2.1-1.1,3.3c-.6,4.3.1,8.7.9,13,1,5.4,2.2,10.8,3.6,16,0,1.4.1,2.8-.2,4.2s-1.1,2.6-2.3,3.3c-.3.2-.6.3-1,.4-1.2.4-2.5.6-3.6.1Z"></path>
    <path class="st0" d="M27.1,39.4"></path>
  </g>
  <g id="SvgjsG1049">
    <path class="st6" d="M81.7,52.6"></path>
    <path class="st3" d="M66.6,63.5c-.4,3.4-.8,6.9-1,10.3,0,.3,0,.6,0,.8.2.5.8.7,1.3.8,1.7.2,3.5-.7,4.3-2.2.2-.5.4-1,.3-1.5s-.7-.9-1.2-.8c-.6.2-.9,1-1.4,1.4,0,0-.1.1-.2,0-.2,0-.2-.3-.2-.5,0-1.4.2-2.7.3-4.1.3-4.1.6-8.2,1.5-12.3,0-.5.2-.9,0-1.4s-.5-.9-.9-.9h-2.2c-.3,0-.5,0-.8,0-.3,0-.7.1-1,.2-1.5.4-2.9,1.1-4,2.1s-2.1,2.3-2.5,3.8c-.1.5-.2,1-.2,1.5,0,.9,0,1.9,0,2.8s.5,1.8,1,2.6c.3.5.8.9,1.3,1.1.2,0,.3,0,.5,0,.2,0,.3,0,.5-.1,1.4-.6,2.7-1.6,3.5-2.9.3-.5.5-1,1-1.2,0,0,.1,0,0,.1Z"></path>
  </g>
  <g id="SvgjsG1048">
    <path class="st9" d="M64.7,56.6c-1.9,1.1-3.4,3.1-3.4,5.3,0,.4,0,.8.3,1.2.4.6,1.2.7,1.9.4s1.1-.8,1.5-1.4c.8-1.1,1.4-2.3,1.8-3.6.2-.6.3-1.2,0-1.7-.4-.6-1.3-.6-1.9-.3s-1,1-1.4,1.6"></path>
  </g>
</svg><style>@media (prefers-color-scheme: light) { :root { filter: none; } }
@media (prefers-color-scheme: dark) { :root { filter: none; } }
</style></svg>