<?xml version="1.0" encoding="UTF-8"?>
<svg xmlns="http://www.w3.org/2000/svg" version="1.1" viewBox="0 0 309.9 121.7">
  <!-- Generator: Adobe Illustrator 30.0.0, SVG Export Plug-In . SVG Version: 2.1.1 Build 123)  -->
  <defs>
    <style>
      .st0 {
        fill: #038377;
      }

      .st0, .st1 {
        stroke: #038377;
        stroke-miterlimit: 10;
      }

      .st1 {
        fill: none;
      }

      .st2 {
        display: none;
      }
    </style>
  </defs>
  <g id="Layer_3">
    <path class="st1" d="M0,38.1c22.4,2.3,45-.5,67.5.7,11.3.6,23.3,2,33.2-3.4,1.4-.8,2.8-1.8,3.6-3.2.6-1.1.7-2.4,1-3.6,1.7-6.1,8.2-9.5,14.4-11.3,2-.6,4.1-1,6.1-.5,2.9.8,4.9,3.5,6.5,6,12.1,19.4,18.9,41.8,31.4,61,2.3,3.5,4.8,6.9,6.2,10.9s1.7,8.5-.4,12.1c-2.5,4.4-7.8,6.3-12.7,7.1s-10.1.7-14.8,2.6c-4.7,1.9-9.3,5.7-14.3,4.5-4.5-1-7.1-5.8-9-10-8.8-19-17.6-38.1-26.5-57.1-1.3-2.9-2.7-5.9-2.6-9s1.9-6.5,4.9-7.2c.4-.2.9,0,1.3-.2"/>
  </g>
  <g id="Layer_4">
    <path class="st1" d="M129.2,18.9c.9-1.9,2-4.1,4.1-4.5,3-.6,5.7,3,8.7,2.5,3.4-.6,4.1-5.7,7.3-7.2,2.3-1.1,4.9,0,7.2,1s5.2,1.8,7.2.2c.8-.6,1.2-1.5,1.7-2.4,1.1-1.9,2.6-3.9,4.8-4.2,2.2-.4,4.2,1,6.2,1.9s4.6,1.6,6.2.2c1.2-1.1,1.4-3,2.7-4.1,1-.9,2.4-1,3.7-1,3.4-.2,6.7-.4,10.1-.6,2.8-.2,5.8-.3,8.4.7,3.3,1.3,5.7,4.4,7,7.8s1.6,7,1.9,10.6c1.6,18.1,3.2,36.2,4.9,54.3.3,2.9.5,5.7.4,8.6,0,1.1-.1,2.3-.6,3.3-.8,1.5-2.3,2.4-3.8,3.1-3.5,1.7-7.4,2.8-11.3,3.3-2.8.3-5.8.3-8-1.3-1.4-1-2.4-2.6-3.1-4.2-1.8-4.1-1.9-8.7-2.1-13.2-.7-20-2.8-40-6.4-59.7-.7-4.1-1.5-8.5.3-12.3"/>
  </g>
  <g id="Layer_5">
    <path class="st1" d="M171.2,102.2c.2-1.8.9-3.5,1.9-4.9.3-.4.7-.9,1.2-1,1.3-.4,2.5.9,3.9.7,1.2-.2,1.8-1.6,2.3-2.8s1.3-2.5,2.6-2.3c.7,0,1.2.7,1.8,1,1.6,1,3.9.5,4.9-1.1.7-1.1,1.2-2.7,2.5-2.5.4,0,.7.3,1.1.5,1.5,1,3.4,1.5,5.1,1.3"/>
  </g>
  <g id="Layer_6">
    <path class="st1" d="M142.1,17c10.9,26.5,21.7,53,32.6,79.5"/>
    <path class="st1" d="M162,12c1.5,7.7,3.1,15.4,5.1,23,1.6,6.2,3.6,12.4,5.4,18.6,3.7,12.7,6.7,25.5,9,38.5"/>
    <path class="st1" d="M181.2,7.3c4.5,27,8,54.2,10.6,81.5"/>
  </g>
  <g id="Layer_7">
    <path class="st1" d="M150.4,9.3c6.1,29.8,18.7,57.7,29,86.3"/>
    <path class="st1" d="M170.4,4.4c6.1,29.5,8.9,59.6,17,88.6"/>
  </g>
  <g id="Layer_8">
    <path class="st1" d="M214.2,90.7c9,1.7,18.3.9,27.4.3,22.7-1.5,45.5-1.6,68.2-.4"/>
  </g>
  <g id="Layer_9">
    <path class="st1" d="M91.7,43.5l6.9-4.1c3.2-1.9,7.1-3.8,10.5-2.3,1.4.7,2.7,2.3,2.1,3.8-.4,1-1.6,1.6-2.6,2-1.7.7-3.5,1.4-5.2,2.2-1.3.6-2.7,1.1-3.8,2.1s-1.9,2.4-1.8,3.8c0,.5.2,1,.6,1.4,1,1.2,3.1.9,4.3,0s2.1-2.4,3.2-3.6c1.4-1.5,3.3-2.5,5.4-2.8,1.2-.2,2.6,0,3.5.8,1.2,1.2.8,3.3-.3,4.5s-2.8,1.9-4.3,2.4c-2,.7-4.1,1.5-6.1,2.2-.8.3-1.7.6-2.4,1.3s-1,1.7-.6,2.4c.7,1.3,2.6,1,4,.6.5-.2,1-.3,1.3-.7.4-.4.4-1.1.3-1.7-.3-1.3-1.3-2.4-2.6-2.7s-2.8.2-3.6,1.3c-1.2,1.6-.7,4.1.8,5.4s3.7,1.7,5.6,1.2,3.7-1.5,5.3-2.8c1.1-.8,2.1-1.8,3.5-2.1,1.6-.4,3.4.1,4.8,1.1,1.9,1.3,3.4,3.3,3.4,5.6s-1.7,4.6-4,4.7c-.7,0-1.5-.2-2-.7-.7-.9-.2-2.4.8-2.9s2.3-.3,3.3.3,1.7,1.6,2.3,2.5c.2.3.4.6.5.9.1.8-.5,1.4-1.1,1.9-4.3,3-11,1.6-14.4,5.7-.2.3-.5.7-.5,1-.1.9.6,1.6,1.4,2,1.3.7,3.1,1,4.1-.1.6-.7.6-1.8.4-2.7-.3-1.3-1.2-2.6-2.4-3.2s-2.9-.5-3.9.5c-1,.9-1.3,2.4-1,3.8s.9,2.5,1.6,3.7c1.9,3.3,3.8,6.6,5.7,9.8.2.4.4.7.8.9.5.3,1,.2,1.5,0,4.3-.9,8.3-3.2,11.3-6.5.7-.8,1.4-1.7,1.6-2.8s-.5-2.3-1.6-2.5c-1.3-.2-2.3,1.3-2.1,2.6s1.3,2.2,2.4,2.9,2.4,1,3.4,1.8c1.6,1.1,2.6,2.9,3.6,4.6.7,1.2,1.4,2.6.8,3.9-.6,1.5-2.5,1.9-4.2,2-1.8.2-3.6.3-5.3.5-1.9.2-4.1.5-5.3,2-1.7,2.2,0,5.7,2.5,6.8,1.5.6,3.8.2,3.9-1.4,0-1.2-1.2-2-2.3-2.4-.3,0-.6-.2-.9,0-.8.2-.7,1.3-.4,2.1.6,1.4,1.2,2.9,1.9,4.2,1.2,2.3,2.8,4.7,5.4,5.1,4.3.7,7.6-4.7,11.9-4.5,2,.1,3.8,1.6,4.4,3.5"/>
  </g>
  <g id="Layer_10">
    <path class="st1" d="M209.9,9.7l-9.6,1.1c-1.2.1-2.4.3-3.5.8s-1.9,1.6-1.9,2.8c0,.9.5,1.7,1.2,2.3,1.2,1,3,1.4,4.5.9.9-.3,1.7-.9,2.6-1.3,1.7-.7,3.8-.6,5.2.6s1.7,3.5.5,4.9-3.9,1-4.4-.8c-.1-.4-.1-.9.2-1.2.1-.2.4-.3.6-.3,1.4-.4,2.9.8,2.9,2.2,0,1.1-.9,2-1.9,2.5s-2.1.5-3.2.6c-1.9.1-3.9.2-5.5,1.3s-2.4,3.5-1.2,5c1,1.2,2.8,1.3,4.3.8.7-.2,1.4-.5,1.8-1.1s.4-1.5-.1-1.9c-.7-.6-1.8-.1-2.3.7s-.4,1.8-.3,2.7c.1,1.4.3,2.9.8,4.2.6,1.4,2,2.6,3.4,2.2.7-.2,1.2-.8,1.8-1.2,1.1-.9,2.6-1.5,4.1-1.2s2.8,1.3,3.1,2.7-.7,3.1-2.1,3.3c-.8.1-1.8-.3-2-1.1s.4-1.8,1.2-1.7c.7.7,1.3,1.5,1.5,2.4s-.3,2.1-1.3,2.3c-.5,0-.9,0-1.4,0-2.4-.3-4.6,1.5-5.5,3.8s-.6,4.7,0,7c.3,1.1.9,2.4,2,2.4.5,0,.9-.2,1.3-.4,1.4-.7,3-1.2,4.6-1s3.1,1.1,3.8,2.5.2,3.4-1.2,4.1c-1.9,1.1-4.5-.5-6.5.3-1.1.4-1.8,1.4-2.4,2.4-.5,1.1-.8,2.4-.6,3.6s1.1,2.3,2.3,2.7,2.6-.1,3.2-1.2-.2-2.7-1.4-2.9c-1.3-.2-2.4,1-2.5,2.3s.4,2.5,1,3.6c.3.6.7,1.2,1.3,1.6,1.8.9,3.8-1.6,5.7-1,1.3.4,1.8,1.8,2.1,3.1,1,4,1.7,8,2.1,12.1"/>
  </g>
  <g id="Layer_11">
    <path class="st1" d="M109.5,28c.3-.9,1.5-1.3,2.4-1s1.7,1,2.3,1.7c6.1,6.5,9.4,15.1,12.8,23.4,5.8,14,12.4,27.6,19.9,40.8,2.5,4.3,5,8.7,6,13.6.3,1.5.2,3.3-1.1,3.9-1.2.5-2.5-.4-3.5-1.3"/>
    <path class="st1" d="M195,8.5c-1-.4-2.3.2-2.9,1.1s-.7,2.1-.8,3.2c-.2,4.3.2,8.6.6,12.8,1.7,15.8,3.7,31.5,6.1,47.2.5,3.5,1.1,7.1,3.1,10.1.5.8,1.1,1.5,1.9,1.9,1.5.8,3.6.4,4.7-1"/>
  </g>
  <g id="Layer_12" class="st2">
    <path class="st0" d="M123.3-3c1.5,3.8,3.2,7.6,4.9,11.3,0,.2.2.4.4.6.2.2.6.1.9,0,1.8-.3,3.5-1.1,5.2-1.8.4-.2.9-.5,1.1-.9.2-.6-.4-1.1-1-1.2s-1.2.1-1.7.4-1,.6-1.6.7c-1.1.2-2.2-.5-2.9-1.4s-1-2-1.3-3.1c-.5-1.3-1-2.6-1.6-3.9-.4-.8-1-1.7-2-1.8-.1,0-.3,0-.4,0-.3.2-.2.7,0,1.1.8,1.3,1.4,2.7,1.8,4.1"/>
    <path class="st0" d="M167.3,2.2l.3-.6"/>
  </g>
  <g id="Layer_13" class="st2">
    <path class="st0" d="M134-6.2l3.2,8.3c.3.9.7,1.8,1.2,2.6.1.2.3.4.5.5.2.1.5.1.8.1,1.5-.1,3-.7,4.4-1.4s.3-.1.5-.3c.2-.2.3-.5.2-.8s-.4-.5-.6-.6c-.3,0-.6,0-.9.2-.5.2-1.1.4-1.7.5-.3,0-.7.1-1,0-.8-.2-1.3-1.1-1.7-1.8-.2-.5-.5-1.1-.2-1.5.2-.4.6-.5,1-.7.6-.2,1.2-.5,1.8-.7.3-.1.6-.2.8-.5s.3-.6.1-.9c-.2-.2-.5-.3-.7-.2s-.5.2-.7.3c-.9.4-1.9.7-3,.7-.2,0-.3,0-.4-.1,0,0-.1-.1-.1-.2-.2-.5-.4-1-.5-1.5s0-1.1.3-1.5c.7-.9,2.2-.8,3-1.6.2-.2.4-.5.4-.7,0-.4-.4-.7-.7-.8s-.7,0-1.1,0c-1.6.4-3,1.1-4.3,2.1-.1.1-.3.2-.4.4-.1.3,0,.6,0,.9.2.6.4,1.1.7,1.7.9,2,2.2,3.7,2.9,5.8"/>
  </g>
</svg>