<?xml version="1.0" encoding="UTF-8"?>
<svg xmlns="http://www.w3.org/2000/svg" xmlns:xlink="http://www.w3.org/1999/xlink" version="1.1" viewBox="0 0 1512 982">
  <!-- Generator: Adobe Illustrator 30.0.0, SVG Export Plug-In . SVG Version: 2.1.1 Build 123)  -->
  <defs>
    <style>
      .st0 {
        fill: #038377;
      }

      .st1 {
        fill: none;
        stroke: #038377;
        stroke-miterlimit: 10;
        stroke-width: 1.5px;
      }

      .st2 {
        display: none;
      }
    </style>
  </defs>
  <g id="Layer_2" class="st2">
    <image width="3912" height="2320" transform="translate(1153.1 416.7) scale(0)" xlink:href="Noder-MacBook-Airpro-1.png"/>
  </g>
  <g id="Layer_4">
    <path class="st1" d="M1183.8,532.5c2.7,4.4,8.6,6.4,13.4,4.7,1.8-.7,3.4-1.8,5.2-2.4,4.7-1.6,9.9.6,13.9,3.5s7.5,6.6,11.9,8.9c1,.5,2.2,1,3.3.8,3-.6,3.2-4.9,2.5-7.9-2.6-12.5-5.1-25-7.7-37.6-1.1-5.6-2.3-11.3-1.6-16.9.4-3.7,3.6-8.2,6.8-6.4,1.5.8,2,2.7,2.2,4.5.5,4.1-.3,8.3-2.1,11.9-4.4,8.9-15,15.2-14.7,25.1,0,2.4.9,4.7,2.3,6.7,2.3,3.3,6.4,5.3,10.4,4.8s7.5-3.9,7.8-7.9-2.9-8-6.9-8.2-7.7,4-6.6,7.9c.5,2,2.1,3.7,3.9,4.8,4.8,3.1,11.4,3.1,16.2,0s7.4-9.2,6.5-14.8c-.2-1.2-.5-2.3-.2-3.5.7-2.8,4.3-3.5,7.1-4.2,6.2-1.5,11.7-6,14.4-11.7,1.7-3.6,2.3-8.3-.4-11.2s-9.1-1.2-8.6,2.8c.4,3.6,5.9,4.5,8.6,2s3.1-6.5,3.1-10.1c0-6.9-.8-13.8-2.5-20.5,5.5,3.3,11.2,6.1,17.2,8.4.5,8.1-.3,16.4-2.5,24.2-.7,2.7-1.8,5.6-4.2,7.1s-6.4.3-6.5-2.6c0-1,.4-1.9.9-2.7,3.7-5.4,12.9-3.6,16.5,1.8s3,12.7,1.4,19c-.7,2.8-1.6,5.8-1,8.6.4,1.6,1.2,3.1,2.2,4.4,6.6,8.9,20.4,11.3,29.7,5.2,3.2-2.1,6-5.5,6.1-9.4s-3.5-7.8-7.3-7c-4.4,1-5.1,8.1-1.3,10.6s9.4,0,11.1-4.2c2.8-7.3-4.2-14.9-3.5-22.7.3-3.1,2.4-6.4,5.5-6.3,3.9.1,6.1,5.5,10.1,5.7,3.2.1,5.3-3.2,6.6-6.2.4-1,.8-2,1.8-2.4.8-.3,1.7-.2,2.5.2,5.4,2.2,7,8.8,9.1,14.2s7.3,11.3,12.6,9c2.9-1.2,4.4-4.3,6.9-6.1s7.4-1,7.1,2.1c-.1,1-.8,1.9-1.4,2.8-3.1,4.7-3,11.3.2,16s9.4,7,14.9,5.7c-3-8.4-2.6-18,1-26.2.7-1.5,1.5-3.1,3.1-3.7,1.1-.5,2.3-.3,3.5-.2,8.3.9,16.6,1.7,24.9,2.6"/>
  </g>
  <g id="Layer_8">
    <path class="st0" d="M1201.9,560.2"/>
    <path class="st0" d="M1264.6,483.2c-.4.2-.8.6-1,1,0,.2-.1.3-.2.5-.1.4-.2.7-.2,1.1,0,.5.2,1,.6,1.5s.7.8,1.2,1.1c.3.2.7.4,1,.5.3,0,.6,0,.9.1,1.1,0,2.1-.1,3.1-.6.3-.2.7-.4.9-.7.6,0,1.1-.6,1.4-1.1,0-.1.1-.3.1-.4,0-.3,0-.6-.1-.8-.3-.8-1-1.4-1.6-2-.2-.2-.4-.4-.7-.6-.5-.4-1.2-.5-1.8-.6s-1.3,0-1.9.2c-.3,0-.7.1-1,.3-.7.3-1.2.8-1.5,1.4"/>
  </g>
  <g id="Layer_5">
    <path class="st0" d="M1282,488.8c-.9.2-1.8.5-2.7.9s-1.7.9-2.2,1.7c-.2.3-.4.6-.6.9-.5.9-.8,1.9-.6,2.9,0,.2,0,.4.2.6.2.4.6.7,1,1,.3.2.5.4.8.5,1.2.7,2.8.6,4.1,0,1.3-.6,2.3-1.7,3.1-2.9s1.2-2.5,1.7-3.9c.1-.3.2-.6.2-1,0-.2,0-.5-.2-.7-.1-.2-.4-.3-.6-.3-.7-.2-1.4-.2-2.1-.2-.9,0-1.7.3-2.2.4Z"/>
    <path class="st0" d="M1322.6,515.9c-.9,1-1.4,2.3-1.6,3.6s.1,2.7.8,3.9c.1.2.2.4.4.6.3.3.6.6,1,.9.8.5,1.7.9,2.7,1,.7,0,1.3,0,2,0,.9-.1,1.8-.3,2.4-.9.5-.4.8-1,.9-1.6s.2-1.3.2-1.9c0-1.1-.1-2.2-.7-3.2-.3-.4-.6-.8-1-1.2-1-1-2.1-2-3.5-2.1-.7,0-1.3,0-1.9.3-.5.2-1.1.5-1.5.8-.2.1-.3.3,0,0Z"/>
    <path class="st0" d="M1390.7,505.1c-.1-.4-.1-.8,0-1.1.2-1.7,1.5-3.2,3-3.8.8-.3,1.7-.5,2.5-.3s1.6.6,2.1,1.3c.2.4.4.8.5,1.2.1.5.2.9.2,1.4,0,.9-.4,1.8-1.1,2.5s-1.5,1.1-2.4,1.4c-.6.2-1.3.2-1.9,0-.2,0-.4-.2-.5-.3-.9-.7-2.1-1.3-2.4-2.2Z"/>
    <path class="st0" d="M1407.9,505.7c-.8,1.3-.7,3,.2,4.1.2.2.4.4.6.5,1.1.9,2.5,1.5,3.9,1.5s2.9-.4,3.9-1.3c.4-.3.7-.7.9-1.1.2-.4.3-.9.4-1.3.1-1.2,0-2.4-.6-3.5s-1.6-1.9-2.8-2.1c-1.1-.2-2.3,0-3.3.2-.9.6-1.7,1.1-2.5,1.8-.2.1-.3.3-.5.5-.2.3-.2.7-.3.6Z"/>
  </g>
</svg>