<?xml version="1.0" encoding="UTF-8"?>
<svg xmlns="http://www.w3.org/2000/svg" version="1.1" viewBox="0 0 155.8 64.9">
  <!-- Generator: Adobe Illustrator 30.0.0, SVG Export Plug-In . SVG Version: 2.1.1 Build 123)  -->
  <defs>
    <style>
      .st0 {
        fill: none;
      }

      .st0, .st1 {
        stroke: #038377;
        stroke-miterlimit: 10;
      }

      .st1 {
        fill: #038377;
        stroke-width: .2px;
      }
    </style>
  </defs>
  <g id="Layer_2">
    <path class="st0" d="M663.8-496.3"/>
    <path class="st0" d="M59.4,30.8c3.2,1.7,7.3,1.9,10.5.3s5.5-5.3,5.1-8.9-3.4-6.9-7-7.2c-2.2-.2-5,.5-6.2-1.3-1.5-2.2,1.2-5,3.7-5.5,3.8-.8,7.9.7,10.3,3.7-.7-2-1.4-4-1.3-6.1s1.2-4.3,3.1-5c2.9-1.1,6.2,1.7,6.3,4.8s-2.2,5.9-4.9,7.3c-.5.3-1.1.6-1.4,1.1-.5,1,.5,2.1,1.3,2.8,17.6,14.3,40,21.7,62.3,26,3.2.6,6.6,1.2,9.4,2.9s5,4.9,4.6,8.2c-.5,3.7-4.2,6.3-7.7,7.5-4.1,1.4-8.6,1.8-12.9,2.1-11.9.8-23.7,1.1-35.6.9-11.1-.2-22.4-.8-32.6-4.9-7.3-3-14.4-7.8-22.3-7.4-1.2,0-2.5.4-3,1.4-.2.5-.2,1.2-.3,1.8-.4,3.6-4.5,5.4-8,6-7.2,1.3-14.7.4-22-.4-3.1-.4-6.6-1-8.1-3.6-1.9-3.3.4-7.4.9-11.2.7-4.8-1.5-9.5-2.5-14.2C-.6,23.6,1.5,14.7,6.4,7.9c3.9,4,9.5,5.8,15,6.7,9.4,1.6,19.5.7,27.8-4.1,2.4-1.4,4.7-3.2,7.3-4.3s5.7-1.4,8.1.1"/>
  </g>
  <g id="Layer_3">
    <path class="st0" d="M3.7,45.6c17.9-4.1,36.8-1.1,54.2,4.8,7.1,2.4,14.1,5.3,21.5,6.7,4.9.9,9.8,1.1,14.8,1.3,6.1.3,12.2.5,18.3.8,4.4.2,8.8.4,13.2.2,6.8-.3,13.5-1.3,20-3.2,2.1-.6,4.2-1.3,5.8-2.9s2.4-4,1.5-5.9"/>
  </g>
  <g id="Layer_5">
    <path class="st1" d="M75.4,10.3c.9.8,1.8,1.6,2.6,2.5,0,0,0,0,0,.2,0,0,0,.1,0,.2-.2.2-.3.5-.5.7,0,0,0,0,0,0,0,0,0,0-.1,0-.3-.1-.6-.4-.8-.7-.6-.9-1-1.9-1.2-3Z"/>
    <path class="st1" d="M90.1,12"/>
  </g>
  <g id="Layer_6">
    <path class="st0" d="M78.2,13.3c-1.4.5-2.1,2.2-1.5,3.6.2.5.5.9,1,1,.6.1,1.2-.3,1.7-.7.7-.5,1.4-.9,2.2-1s1.8.4,2,1.1c.2.7-.1,1.4-.5,2s-.9,1.2-1,1.9.2,1.6,1,1.7c.4,0,.7-.1,1-.3.7-.4,1.4-.7,2-1.1.6-.4,1.3-.8,2-.5.7.3.9,1.3.8,2s-.6,1.4-.8,2.2,0,1.7.7,2.1c.5.2,1.1.1,1.5-.1,1-.5,1.7-1.3,2.7-1.9s2.3-.6,2.9.3c.4.6.3,1.4.2,2s-.5,1.4-.4,2.1.5,1.5,1.2,1.5c.3,0,.6-.1.8-.3.7-.4,1.3-1,2-1.4s1.4-.9,2.2-.8,1.6.7,1.6,1.5c0,.8-.8,1.4-.9,2.3-.2,1.1,1,2,2.1,2s2.1-.6,2.9-1.4c.9-.8,2-1.8,3.2-1.5.6.2,1.1.8,1.3,1.4s.2,1.3.2,2c0,.5,0,1.1,0,1.6s.4,1,.9,1.2c.3.1.6,0,1,0,.9-.2,1.8-.7,1.9-1.6"/>
  </g>
</svg>